<?xml version="1.0" encoding="UTF-8"?>
<svg id="Layer_1" data-name="Layer 1" xmlns="http://www.w3.org/2000/svg" xmlns:xlink="http://www.w3.org/1999/xlink" viewBox="0 0 800 300">
  <defs>
    <style>
      .cls-1, .cls-2 {
        fill: none;
      }

      .cls-3 {
        clip-path: url(#clippath);
      }

      .cls-4 {
        opacity: .12;
      }

      .cls-5 {
        fill: #fff;
      }

      .cls-6 {
        fill: snow;
      }

      .cls-7 {
        fill: #23423d;
      }

      .cls-8 {
        fill: #433c40;
      }

      .cls-9 {
        fill: #453e42;
      }

      .cls-10 {
        fill: #975f3a;
      }

      .cls-11 {
        clip-path: url(#clippath-1);
      }

      .cls-12 {
        clip-path: url(#clippath-3);
      }

      .cls-13 {
        clip-path: url(#clippath-2);
      }

      .cls-2 {
        stroke: #453e42;
        stroke-width: .23px;
      }
    </style>
    <clipPath id="clippath">
      <rect class="cls-1" y="-18" width="978.23" height="189.43"/>
    </clipPath>
    <clipPath id="clippath-1">
      <rect class="cls-1" x="289.08" y="-68.69" width="875.77" height="521.01"/>
    </clipPath>
    <clipPath id="clippath-2">
      <path class="cls-1" d="m662.43,10.44c-3.66,0-5.61,2.04-6.83,4.48l-6.91,15.15,19.02,42.92,4.07,9.12,6.99,15.88,8.54,19.3,22.51,50.82c2.28,5.21,4.55,10.34,6.91,15.47,2.52,5.86,5.12,11.65,7.72,17.35h-59.42v.08h-19.59c-1.35,5.13-6.61,8.2-11.74,6.85s-8.2-6.61-6.85-11.74c1.35-5.13,6.61-8.2,11.74-6.85,3.35.88,5.97,3.5,6.85,6.85h6.42c3.58-8.06,7.15-16.04,10.73-24.11l-14.79-37.79-68.6,152.3c-2.44,5.21.73,10.51,6.83,10.51h16.09c2.97.03,5.67-1.74,6.83-4.48,9.92-22.15,19.75-44.39,29.67-66.54h96.72l9.59,21.34.81,1.79c.57,1.3,1.3,2.77,2.03,4.48.08.25.16.49.24.74.24.65.57,1.38.81,2.12,3.9,10.18,5.93,15.31,4.15,20.2-1.63,4.56-5.53,7.25-5.77,7.41-1.62,1.14-3.09,1.63-4.71,2.12-4.53,1.45-9.14,2.62-13.82,3.5l-.08,7.17c12.68.08,25.36.08,37.96.16h21.54c.27.01.55-.01.81-.08,8.13,0,16.26,0,24.38-.08v-7.17c-4.68-.86-9.29-2.03-13.82-3.5-1.46-.41-3.33-.57-4.71-2.12-.65-.65-1.3-1.87-2.68-4.32-.24-.41-.41-.82-.65-1.22-.16-.33-.33-.65-.41-.81-.1-.18-.18-.37-.24-.57-.24-.49-.57-1.22-.97-2.04l-.65-1.3c-.41-.89-.9-1.95-1.46-3.18l-.81-1.87-1.22-2.77-1.05-2.44-3.25-7.33-2.03-4.64c-.18-.5-.4-.99-.65-1.46v-.08l-34.63-77.12-49.42-110.43-21.29-47.56c-1.22-2.44-3.25-4.48-6.91-4.48h-3.98Z"/>
    </clipPath>
    <clipPath id="clippath-3">
      <rect class="cls-1" x="289.08" y="10.44" width="875.77" height="441.88"/>
    </clipPath>
  </defs>
  <rect class="cls-6" x="-18" y="-18" width="836" height="336"/>
  <g id="Group_426" data-name="Group 426" class="cls-4">
    <g class="cls-3">
      <g id="Group_17" data-name="Group 17">
        <g id="Group_16" data-name="Group 16">
          <path id="Path_13" data-name="Path 13" class="cls-2" d="m11.98-13.25C8.14-8.22,4.32-3.17.54,1.9m29.76-15C20.65.28,10.7,13.5.68,26.66M47.93-13.21C32.96,7.58,16.03,27.15.73,47.74M66.28-13.17C44.3,15.64,23.96,45.49.48,73.36M83.25-11C54.61,24.08,29.71,62.36.62,98.62M87.24,8.08c-12.12,18.64-25.3,35.8-39.95,54.28C29.71,83.48,17.99,103.28.46,123.35M91.17,26.23c-7.49,9.94-14.98,19.87-22.47,29.81-15.07,19.99-30.15,39.99-45.22,59.98-7.62,10.12-15.25,20.23-22.88,30.35M187.25-13.33c4.83,2.95,9.65,5.89,14.48,8.84m-41.8-8.9c11.86,7.11,23.58,13.71,33.22,20.31m-59.03-20.29c15.83,9.67,31.67,19.33,47.51,29,1.13.69,2.27,1.39,3.4,2.08M107.28-13.2C130.78.32,154.22,14.84,176.45,29.09M83.3-11.09l84.38,51.51M87.42,7.96l71.86,43.93m-68.07-25.76l59.65,36.41m-8.28,11.52l-47.25-28.89C63.74,87.13,32.14,129.06.53,171m150.51-95.13c.46,2.14-1.1,4.21-3.48,4.62s-4.68-.99-5.13-3.14,1.1-4.21,3.48-4.63,4.68.99,5.13,3.14h0Zm8.19-11.58c.46,2.14-1.1,4.21-3.48,4.63s-4.68-.99-5.13-3.14,1.1-4.21,3.48-4.63,4.68.99,5.13,3.14h0Zm8.57-10.3c.46,2.14-1.1,4.21-3.48,4.63s-4.68-.99-5.13-3.14,1.1-4.21,3.48-4.63,4.68,1,5.13,3.14Zm8.19-11.58c.46,2.14-1.1,4.21-3.48,4.63s-4.68-.99-5.13-3.14,1.1-4.21,3.48-4.63,4.68.99,5.13,3.14h0Zm8.88-11.4c.46,2.14-1.1,4.22-3.48,4.63s-4.68-.99-5.13-3.14,1.1-4.21,3.48-4.62,4.68.99,5.13,3.14h0Zm8.34-11.83c.45,2.12-1.09,4.17-3.45,4.58s-4.63-.98-5.08-3.11,1.09-4.17,3.45-4.58,4.63.98,5.08,3.11h0Zm8.49-10.2c.45,2.12-1.09,4.17-3.45,4.58-2.36.41-4.63-.98-5.08-3.11s1.09-4.17,3.45-4.58,4.63.99,5.08,3.11h0Zm8.11-11.47c.45,2.12-1.09,4.17-3.45,4.58s-4.63-.98-5.08-3.11,1.09-4.17,3.45-4.58,4.63.99,5.08,3.11h0Zm76.63,95.22c27.44-34.32,52.34-71.28,79.92-106.01m-79.97,106.1l-84.38-51.51m8.4-11.47l71.86,43.93.19-.11c21.18-29.76,43.15-57.48,65.4-86.88M218.81,19.16l59.65,36.41.05-.09c13.39-16.89,26.57-32.73,38.29-51.21,4.39-6.6,8.79-11.88,13.48-17.46M227.09,7.64l47.25,28.89.18-.11c12.98-16.3,24.7-33.46,37.27-49.51M218.63,5.85c-.46-2.14,1.1-4.21,3.48-4.63s4.68.99,5.13,3.14-1.1,4.21-3.48,4.63-4.68-.99-5.13-3.14h0Zm-8.19,11.58c-.46-2.14,1.1-4.21,3.48-4.63s4.68.99,5.13,3.14-1.1,4.21-3.48,4.62-4.68-.99-5.13-3.14Zm-8.57,10.3c-.46-2.14,1.1-4.21,3.48-4.63s4.68.99,5.13,3.14-1.1,4.21-3.48,4.62-4.68-.99-5.13-3.14h0Zm-8.19,11.58c-.46-2.14,1.1-4.21,3.48-4.63s4.68.99,5.13,3.14-1.1,4.21-3.48,4.63-4.68-.99-5.13-3.14Zm-8.88,11.4c-.46-2.14,1.1-4.21,3.48-4.63s4.68.99,5.13,3.14-1.1,4.21-3.48,4.63-4.68-.99-5.13-3.14h0Zm-8.34,11.83c-.45-2.12,1.09-4.17,3.45-4.58s4.63.98,5.08,3.11-1.09,4.17-3.45,4.58-4.63-.98-5.08-3.11h0Zm-8.49,10.2c-.45-2.12,1.09-4.17,3.45-4.58s4.63.98,5.08,3.11-1.09,4.17-3.45,4.58-4.63-.98-5.08-3.11h0Zm-8.11,11.47c-.45-2.12,1.09-4.17,3.45-4.58s4.63.98,5.08,3.11-1.09,4.17-3.45,4.58-4.63-.98-5.08-3.11h0ZM384.55-13.35c-15.79,20.78-31.51,41.6-47.18,62.46-15.72,20.93-31.38,41.9-46.98,62.92l-97.17-59.4M477.15-13.24c7.01,4.28,14.03,8.56,21.04,12.85m-48.3-12.9c13.39,8.33,26.57,16.25,39.73,24.29m-67.29-24.39c18,10.99,36,21.97,53.99,32.96,1.51.92,3.02,1.84,4.53,2.76m-8.4,11.47l-71.86-43.93c-35.36,47.07-70.71,94.14-106.07,141.21l-109.86-67.07m279.38-19.55l-59.65-36.42-.05.09c-35.34,47.04-70.68,94.08-106.02,141.12l-121.78-74.45m279.22-18.82l-47.25-28.89c-35.36,47.07-70.72,94.14-106.07,141.21l-134.48-82.1m296.26-28.43c.46,2.14-1.1,4.21-3.48,4.63s-4.68-.99-5.13-3.14,1.1-4.21,3.48-4.63,4.68.99,5.13,3.14h0Zm8.19-11.58c.46,2.14-1.1,4.21-3.48,4.63s-4.68-.99-5.13-3.14,1.1-4.21,3.48-4.63,4.68.99,5.13,3.14h0Zm8.74-10.39c.46,2.14-1.1,4.21-3.48,4.63s-4.68-.99-5.13-3.14,1.1-4.21,3.48-4.63,4.68.99,5.13,3.14h0Zm8.01-11.49c.46,2.14-1.1,4.21-3.48,4.63s-4.68-.99-5.13-3.14,1.1-4.21,3.48-4.63,4.68.99,5.13,3.14h0Zm8.88-11.4c.46,2.14-1.1,4.21-3.48,4.63s-4.68-.99-5.13-3.14,1.1-4.21,3.48-4.63,4.68.99,5.13,3.14h0Zm8.34-11.83c.45,2.12-1.09,4.17-3.45,4.58s-4.63-.98-5.08-3.11,1.09-4.17,3.45-4.58,4.63.98,5.08,3.11h0Zm8.48-10.2c.45,2.12-1.09,4.17-3.45,4.58s-4.63-.98-5.08-3.11,1.09-4.17,3.45-4.58,4.63.98,5.08,3.11h0Zm1.53-7.44c.95.54,2.06.73,3.13.55.53-.09,1.04-.28,1.51-.55h-4.64Zm99.27,166.68L721.48,9.73m-109.82,121.32L717.39-9.41m-109.66,122.3c31.31-42.62,65-84.86,95.8-127.08m-99.79,108.01c23.58-30.15,45.55-60.51,70.45-92.19,2.93-5.28,8.79-9.24,10.63-15.53m-85.23,88.51c21.88-29.42,43.85-58.47,66.3-87.95m-70.29,68.88c17.07-22.23,34.65-45.99,51.71-68.7m-55.64,50.55c2.59-3.66,28.1-37.86,38.14-50.59m-14.22,163.41l-134.48-82.1m130.36,63.05l-121.78-74.45m117.98,56.27l-109.86-67.07m105.74,48.02l-97.17-59.4m93.15,40.18l-84.38-51.51m80.26,32.46l-71.86-43.93m68.07,25.76L531.98,1.07m55.53,17.36l-47.25-28.89m-2.3-6.11h-3.71c-1.78.75-2.84,2.5-2.45,4.31.46,2.14,2.75,3.55,5.13,3.14s3.94-2.48,3.48-4.63c-.3-1.29-1.22-2.34-2.45-2.82Zm-14.35,15.89c-.46-2.14,1.1-4.21,3.48-4.63s4.68.99,5.13,3.14-1.1,4.21-3.48,4.63-4.68-.99-5.13-3.14Zm-8.57,10.3c-.46-2.14,1.1-4.21,3.48-4.63s4.68.99,5.13,3.14-1.1,4.21-3.48,4.63-4.68-.99-5.13-3.14h0Zm-8.19,11.58c-.46-2.14,1.1-4.21,3.48-4.63s4.68.99,5.13,3.14-1.1,4.21-3.48,4.63-4.68-.99-5.13-3.14h0Zm-8.88,11.4c-.46-2.14,1.1-4.21,3.48-4.63s4.68.99,5.13,3.14-1.1,4.21-3.48,4.63-4.68-1-5.13-3.14Zm-8.34,11.83c-.45-2.12,1.09-4.17,3.45-4.58s4.63.98,5.08,3.11c.45,2.12-1.09,4.17-3.45,4.58s-4.63-.98-5.08-3.11Zm-8.49,10.2c-.45-2.12,1.09-4.17,3.45-4.58s4.63.98,5.08,3.11-1.09,4.17-3.45,4.58-4.63-.98-5.08-3.11h0Zm-8.11,11.47c-.45-2.12,1.09-4.17,3.45-4.58s4.63.98,5.08,3.11-1.09,4.17-3.45,4.58-4.63-.98-5.08-3.11h0ZM611.66-13.13c-7.77,10.8-16.55,21.36-23.93,31.75m42.47-31.85l17.5.02,18.55-.17,18.94-.49,18.56-.25,13.77,5.08,3.99,19.07m68.28-24.17l13.02,7.96m-40.27-7.9l31.5,19.23m-58.56-19.19c17.81,9.08,32.46,20.96,50.16,30.66m-68.06-25.76l59.65,36.42m-55.53-17.36l47.25,28.89m8.46,1.8c.46,2.14-1.1,4.21-3.48,4.63s-4.68-.99-5.13-3.14,1.1-4.21,3.48-4.62,4.68.99,5.13,3.14h0Zm8.19-11.58c.46,2.14-1.1,4.21-3.48,4.63s-4.68-.99-5.13-3.14,1.1-4.21,3.48-4.63,4.68.99,5.13,3.14h0Zm8.57-10.3c.46,2.14-1.1,4.21-3.48,4.63s-4.68-.99-5.13-3.14,1.1-4.21,3.48-4.63,4.68.99,5.13,3.14h0Zm8.19-11.58c.46,2.14-1.1,4.21-3.48,4.63s-4.68-.99-5.13-3.14,1.1-4.21,3.48-4.63,4.68.99,5.13,3.14h0Zm8.88-11.4c.46,2.14-1.1,4.21-3.48,4.63s-4.68-.99-5.13-3.14,1.1-4.21,3.48-4.62,4.68.99,5.13,3.14h0Zm7.8-13.07h-7.45c-.54.8-.73,1.78-.54,2.72.45,2.12,2.73,3.51,5.08,3.11s3.9-2.46,3.45-4.58c-.1-.44-.28-.87-.54-1.24Zm109.82,150.29c16.33-21.75,32.45-44.19,48.89-64.86m-52.88,45.79c18.61-22.73,35.63-46.38,52.86-69.95m-56.79,51.79c18.89-25.06,37.78-50.11,56.67-75.17m-60.66,56.1c20.27-26.92,40.53-53.84,60.79-80.76m-64.95,61.56c8.95-12.25,17.74-24.13,27.99-36.01,8.79-11.88,16.11-23.76,25.21-34.57m-57.19,51.5c12.94-16.93,24.66-35.41,38.93-51.72m-42.86,33.57c8.08-10.66,16.87-22.54,25.92-34.38m-29.9,15.31c3.83-5.08,7.65-10.17,11.48-15.25m16.43,147.14l-134.48-82.1m130.36,63.05l-121.78-74.45m117.98,56.28l-109.86-67.07m105.74,48.02l-97.17-59.4m93.15,40.18l-84.38-51.51m80.26,32.46l-71.86-43.93m68.07,25.76l-59.65-36.42m55.53,17.36l-24.89-15.22m-38.84-3.38c.68,1.85,2.78,3.01,4.97,2.64,1.5-.22,2.76-1.23,3.31-2.64h-8.28Zm-8.73,9.8c-.46-2.14,1.1-4.21,3.48-4.63s4.68.99,5.13,3.14-1.1,4.21-3.48,4.63-4.68-.99-5.13-3.14Zm-8.19,11.58c-.46-2.14,1.1-4.21,3.48-4.63s4.68.99,5.13,3.14-1.1,4.21-3.48,4.63-4.68-.99-5.13-3.14Zm-8.88,11.4c-.46-2.14,1.1-4.21,3.48-4.63s4.68.99,5.13,3.14-1.1,4.21-3.48,4.63-4.68-.99-5.13-3.14h0Zm-8.34,11.83c-.45-2.12,1.09-4.17,3.45-4.58s4.63.98,5.08,3.11-1.09,4.17-3.45,4.58-4.63-.98-5.08-3.11h0Zm-8.49,10.2c-.45-2.12,1.09-4.17,3.45-4.58s4.63.98,5.08,3.11-1.09,4.17-3.45,4.58-4.63-.98-5.08-3.11Zm-8.11,11.47c-.45-2.12,1.09-4.17,3.45-4.58s4.63.98,5.08,3.11-1.09,4.17-3.45,4.58-4.63-.98-5.08-3.11h0Z"/>
        </g>
      </g>
    </g>
  </g>
  <g id="Group_427" data-name="Group 427">
    <g id="Group_5" data-name="Group 5">
      <g class="cls-11">
        <g id="Group_4" data-name="Group 4">
          <path id="Path_2" data-name="Path 2" class="cls-8" d="m656.66,81.7c-5.28,11.81-10.57,23.67-15.85,35.59-16.09,36.24-32.19,72.49-48.28,108.73-9.84,22.15-19.75,44.39-29.59,66.54-1.18,2.72-3.86,4.48-6.83,4.48h-43.08v-7.25l9.67-3.75c9.51-3.75,13.9-7.66,21.38-23.86l1.95-4.32,1.87-4.15,93.31-206.95c4.55,10.43,9.18,20.85,13.82,31.28l1.46,3.42.16.24Z"/>
          <path id="Path_3" data-name="Path 3" class="cls-8" d="m662.43,10.44c-3.66,0-5.61,2.04-6.83,4.48l-6.91,15.15,19.02,42.92,4.07,9.12,6.99,15.88,8.53,19.3,22.52,50.82c2.28,5.21,4.55,10.34,6.91,15.47,2.52,5.86,5.12,11.65,7.72,17.35h-59.42v.08h-19.59c-1.35,5.13-6.61,8.2-11.74,6.85s-8.2-6.61-6.85-11.74c1.35-5.13,6.61-8.2,11.74-6.85,3.35.88,5.97,3.5,6.85,6.85h6.42c3.58-8.06,7.15-16.05,10.73-24.11l-14.79-37.79-68.6,152.3c-2.44,5.22.73,10.51,6.83,10.51h16.09c2.97.03,5.67-1.74,6.83-4.48,9.92-22.15,19.75-44.39,29.67-66.54h96.73l9.59,21.34.81,1.79c.57,1.3,1.3,2.77,2.03,4.48.08.25.16.49.24.74.24.65.57,1.38.81,2.12,3.9,10.18,5.93,15.31,4.15,20.2-1.63,4.56-5.53,7.25-5.77,7.41-1.63,1.14-3.09,1.63-4.72,2.12-4.53,1.45-9.14,2.62-13.82,3.5l-.08,7.17c12.68.08,25.36.08,37.96.16h21.54c.27.01.55-.01.81-.08,8.13,0,16.26,0,24.38-.08v-7.17c-4.68-.86-9.29-2.03-13.82-3.5-1.46-.41-3.33-.57-4.71-2.12-.65-.65-1.3-1.87-2.68-4.32-.24-.41-.41-.82-.65-1.22-.16-.33-.33-.65-.41-.81-.1-.18-.18-.37-.24-.57-.24-.49-.57-1.22-.98-2.04l-.65-1.3c-.41-.89-.9-1.95-1.46-3.18l-.81-1.87-1.22-2.77-1.06-2.44-3.25-7.33-2.03-4.64c-.18-.5-.4-.99-.65-1.47v-.08l-34.62-77.12-49.42-110.44-21.29-47.56c-1.22-2.44-3.25-4.48-6.91-4.48h-3.98Z"/>
        </g>
      </g>
    </g>
    <g id="Group_7" data-name="Group 7">
      <g class="cls-13">
        <g id="Group_6" data-name="Group 6">
          <path id="Path_4" data-name="Path 4" class="cls-9" d="m782.91-68.69L480.88,47.25l126.26,328.92,89.47-34.34V30.94c0-9.65,14.98-9.64,14.98,0v35.25c3.42-5.44,13.91-4.12,13.91,3.95,0,15.11.12,30.22.35,45.32.04-.44.07-.89.12-1.33.95-9.52,15.94-9.58,14.98,0-1.15,11.49-1.54,23.01-1.61,34.54,2.15-7.3,14.66-6.54,14.66,2.27v24.34c1.09-5.25,2.17-10.52,3.22-15.79,5.2-26.22,10.3-52.47,11.48-79.24.42-9.61,14.82-9.67,14.98,0,.4,23.74-.06,47.48-1.16,71.19,3.61.1,7.23,2.52,7.49,7.21.93,17.07,2.04,34.14,3.18,51.2,1.87.49,3.52,1.62,4.65,3.19,16.44,22.5,24.01,50.8,29.78,78.5l81.58-31.32-126.26-328.92Z"/>
          <path id="Path_5" data-name="Path 5" class="cls-9" d="m764.19,201.97c.13-1.55.26-3.09.39-4.64-.32,1.42-.65,2.84-.98,4.26.2.12.4.24.59.38"/>
          <path id="Path_6" data-name="Path 6" class="cls-9" d="m801.92,266.16c.96-.98,2.18-1.67,3.52-1.99-2-6.69-4.38-13.27-7.13-19.69,0,6.57.08,13.14.16,19.71,1.31.33,2.5,1.01,3.45,1.98"/>
        </g>
      </g>
    </g>
    <g id="Group_9" data-name="Group 9">
      <g class="cls-12">
        <g id="Group_8" data-name="Group 8">
          <path id="Path_8" data-name="Path 8" class="cls-7" d="m641.54,198.57c0,2.92-2.38,5.28-5.29,5.27-2.92,0-5.28-2.38-5.27-5.29,0-2.91,2.37-5.27,5.28-5.27,2.91-.01,5.27,2.33,5.28,5.24,0,.02,0,.04,0,.06"/>
          <path id="Path_9" data-name="Path 9" class="cls-5" d="m641.54,198.57c0,2.92-2.38,5.28-5.29,5.27-2.92,0-5.28-2.38-5.27-5.29,0-2.91,2.37-5.27,5.28-5.27,2.91-.01,5.27,2.33,5.28,5.24,0,.02,0,.04,0,.06"/>
          <path id="Path_10" data-name="Path 10" class="cls-10" d="m641.54,198.57c0,2.92-2.38,5.28-5.29,5.27-2.92,0-5.28-2.38-5.27-5.29,0-2.91,2.37-5.27,5.28-5.27,2.91-.01,5.27,2.33,5.28,5.24,0,.02,0,.04,0,.06"/>
        </g>
      </g>
    </g>
  </g>
</svg>