<?xml version="1.0" encoding="UTF-8"?>
<svg id="Layer_1" data-name="Layer 1" xmlns="http://www.w3.org/2000/svg" viewBox="0 0 1440 1440">
  <defs>
    <style>
      .cls-1 {
        fill: none;
        stroke: #a78979;
        stroke-miterlimit: 10;
        stroke-width: 6.47px;
      }
    </style>
  </defs>
  <g>
    <circle class="cls-1" cx="792.37" cy="1448.41" r="13.32"/>
    <circle class="cls-1" cx="824.45" cy="1419.21" r="13.32"/>
    <circle class="cls-1" cx="856.21" cy="1385.55" r="13.32"/>
    <circle class="cls-1" cx="889.92" cy="1352.91" r="13.32"/>
    <circle class="cls-1" cx="921.68" cy="1319.25" r="13.32"/>
    <circle class="cls-1" cx="953.76" cy="1290.05" r="13.32"/>
    <circle class="cls-1" cx="985.53" cy="1256.4" r="13.32"/>
    <polyline class="cls-1" points="-127.21 1405.25 221.82 1753.81 222.03 1753.54 626.71 1349.41 627.22 1348.68 749.83 1471.29"/>
    <polyline class="cls-1" points="-94.38 1372.42 221.62 1688.41 222.24 1688.14 626.65 1283.73 627.02 1283.28 781.83 1437.89"/>
    <polyline class="cls-1" points="-63.3 1341.35 221.82 1626.09 222.03 1625.82 626.71 1221.68 627.22 1220.96 813.69 1407.43"/>
    <polyline class="cls-1" points="-30.51 1308.56 221.62 1560.69 222.24 1560.42 626.65 1156.01 627.02 1155.56 846.01 1374.26"/>
    <polyline class="cls-1" points="2.83 1276.06 221.82 1494.76 222.03 1494.49 626.71 1090.36 627.22 1089.63 879.36 1341.76"/>
    <polyline class="cls-1" points="35.15 1242.89 221.62 1429.36 222.24 1429.09 626.65 1024.68 627.02 1024.23 912.14 1308.97"/>
    <polyline class="cls-1" points="67.01 1212.43 221.82 1367.04 222.03 1366.77 626.71 962.63 627.22 961.91 943.22 1277.9"/>
    <polyline class="cls-1" points="99.01 1179.03 221.62 1301.63 222.24 1301.36 626.65 896.96 627.02 896.51 976.05 1245.07"/>
    <circle class="cls-1" cx="88.24" cy="1168.25" r="13.32"/>
    <circle class="cls-1" cx="56.47" cy="1201.91" r="13.32"/>
    <circle class="cls-1" cx="24.39" cy="1231.11" r="13.32"/>
    <circle class="cls-1" cx="-7.37" cy="1264.77" r="13.32"/>
  </g>
  <g>
    <polyline class="cls-1" points="505.87 1550.06 758 1802.19 758.62 1801.92 1163.03 1397.51 1163.4 1397.06 1382.4 1615.76"/>
    <polyline class="cls-1" points="539.21 1517.56 758.21 1736.26 758.42 1735.99 1163.1 1331.85 1163.61 1331.13 1415.74 1583.26"/>
    <polyline class="cls-1" points="571.53 1484.39 758 1670.86 758.62 1670.59 1163.03 1266.18 1163.4 1265.73 1448.53 1550.47"/>
    <polyline class="cls-1" points="603.39 1453.93 758.21 1608.54 758.42 1608.27 1163.1 1204.13 1163.61 1203.41 1479.6 1519.4"/>
    <polyline class="cls-1" points="635.39 1420.53 758 1543.13 758.62 1542.86 1163.03 1138.46 1163.4 1138 1512.43 1486.57"/>
    <circle class="cls-1" cx="624.62" cy="1409.75" r="13.32"/>
    <circle class="cls-1" cx="592.86" cy="1443.41" r="13.32"/>
  </g>
  <g>
    <polyline class="cls-1" points="674.33 877.14 1023.36 1225.7 1023.58 1225.43 1428.26 821.3 1428.77 820.57 1551.37 943.18"/>
    <polyline class="cls-1" points="707.17 844.31 1023.16 1160.3 1023.78 1160.03 1428.19 755.62 1428.56 755.17 1583.37 909.78"/>
    <polyline class="cls-1" points="738.24 813.24 1023.36 1097.98 1023.58 1097.71 1428.26 693.57 1428.77 692.85 1615.23 879.32"/>
    <polyline class="cls-1" points="771.03 780.45 1023.16 1032.58 1023.78 1032.31 1428.19 627.9 1428.56 627.45 1647.56 846.15"/>
    <polyline class="cls-1" points="804.37 747.95 1023.36 966.65 1023.58 966.38 1428.26 562.25 1428.77 561.52 1680.9 813.65"/>
    <polyline class="cls-1" points="836.69 714.78 1023.16 901.25 1023.78 900.98 1428.19 496.57 1428.56 496.12 1713.69 780.86"/>
    <polyline class="cls-1" points="868.55 684.32 1023.36 838.93 1023.58 838.66 1428.26 434.52 1428.77 433.8 1744.76 749.79"/>
    <polyline class="cls-1" points="900.55 650.92 1023.16 773.52 1023.78 773.26 1428.19 368.85 1428.56 368.4 1777.59 716.96"/>
    <circle class="cls-1" cx="889.78" cy="640.14" r="13.32"/>
    <circle class="cls-1" cx="858.02" cy="673.8" r="13.32"/>
    <circle class="cls-1" cx="825.93" cy="703" r="13.32"/>
    <circle class="cls-1" cx="794.17" cy="736.66" r="13.32"/>
    <circle class="cls-1" cx="760.47" cy="769.3" r="13.32"/>
    <circle class="cls-1" cx="727.97" cy="803.69" r="13.19"/>
    <circle class="cls-1" cx="696.19" cy="832.61" r="13.19"/>
    <circle class="cls-1" cx="664.73" cy="865.94" r="13.19"/>
  </g>
  <g>
    <polyline class="cls-1" points="1211.95 1129.04 1560.98 1477.6 1561.19 1477.33 1965.87 1073.2 1966.38 1072.47 2088.99 1195.08"/>
    <polyline class="cls-1" points="1244.78 1096.21 1560.77 1412.2 1561.4 1411.93 1965.81 1007.52 1966.18 1007.07 2120.99 1161.68"/>
    <polyline class="cls-1" points="1275.85 1065.13 1560.98 1349.88 1561.19 1349.61 1965.87 945.47 1966.38 944.75 2152.85 1131.22"/>
    <polyline class="cls-1" points="1308.64 1032.34 1560.77 1284.47 1561.4 1284.21 1965.81 879.8 1966.18 879.35 2185.17 1098.05"/>
    <polyline class="cls-1" points="1341.99 999.85 1560.98 1218.55 1561.19 1218.28 1965.87 814.14 1966.38 813.42 2218.51 1065.55"/>
    <polyline class="cls-1" points="1374.31 966.68 1560.77 1153.15 1561.4 1152.88 1965.81 748.47 1966.18 748.02 2251.3 1032.76"/>
    <polyline class="cls-1" points="1406.17 936.22 1560.98 1090.83 1561.19 1090.56 1965.87 686.42 1966.38 685.7 2282.38 1001.69"/>
    <polyline class="cls-1" points="1438.17 902.82 1560.77 1025.42 1561.4 1025.15 1965.81 620.74 1966.18 620.29 2315.21 968.86"/>
    <circle class="cls-1" cx="1427.39" cy="892.04" r="13.32"/>
    <circle class="cls-1" cx="1395.63" cy="925.7" r="13.32"/>
    <circle class="cls-1" cx="1363.55" cy="954.9" r="13.32"/>
    <circle class="cls-1" cx="1331.79" cy="988.55" r="13.32"/>
    <circle class="cls-1" cx="1298.08" cy="1021.2" r="13.32"/>
    <circle class="cls-1" cx="1265.58" cy="1055.59" r="13.19"/>
    <circle class="cls-1" cx="1233.8" cy="1084.51" r="13.19"/>
    <circle class="cls-1" cx="1202.35" cy="1117.84" r="13.19"/>
  </g>
</svg>