<?xml version="1.0" encoding="utf-8"?>
<!-- Generator: Adobe Illustrator 27.4.1, SVG Export Plug-In . SVG Version: 6.00 Build 0)  -->
<svg version="1.1" id="Layer_2_00000078023510459002680400000013682210249295601323_"
	 xmlns="http://www.w3.org/2000/svg" xmlns:xlink="http://www.w3.org/1999/xlink" x="0px" y="0px" viewBox="0 0 585 643.8"
	 style="enable-background:new 0 0 585 643.8;" xml:space="preserve">
<style type="text/css">
	.st0{clip-path:url(#SVGID_00000145737487891485255370000002300094522843427491_);}
	.st1{fill:#42393D;}
	.st2{clip-path:url(#SVGID_00000183945629970094406510000017959683998494596484_);}
	.st3{fill:url(#SVGID_00000142868256120039600420000008567676094519460484_);}
	.st4{clip-path:url(#SVGID_00000133524620375629305630000011201454142861476000_);}
	.st5{fill:#23423D;}
	.st6{fill:#FFFFFF;}
	.st7{fill:#C65B38;}
	.st8{font-family:'LeMondeLivreClaStd-Book';}
	.st9{font-size:71.8px;}
	.st10{letter-spacing:5;}
	.st11{letter-spacing:-1;}
	.st12{letter-spacing:7;}
</style>
<g>
	<g>
		<g>
			<defs>
				<rect id="SVGID_1_" x="26.9" y="162.9" width="630.2" height="318"/>
			</defs>
			<clipPath id="SVGID_00000101813307066179338650000012872035686353129150_">
				<use xlink:href="#SVGID_1_"  style="overflow:visible;"/>
			</clipPath>
			<g style="clip-path:url(#SVGID_00000101813307066179338650000012872035686353129150_);">
				<path class="st1" d="M291.4,214.2c-3.8,8.5-7.6,17.1-11.4,25.6c-11.6,26.1-23.2,52.2-34.7,78.2C238.2,334,231,350,224,365.9
					c-0.6,1.5-2.3,3.2-4.9,3.2h-31v-5.2l7-2.7c6.8-2.7,10-5.5,15.4-17.2l1.4-3.1l1.4-3l67.1-148.9c3.3,7.5,6.6,15,9.9,22.5l1,2.5
					L291.4,214.2L291.4,214.2z"/>
			</g>
		</g>
		<g>
			<defs>
				<path id="SVGID_00000183249243709618682340000008015617145438168508_" d="M295.6,162.9c-2.6,0-4,1.5-4.9,3.2l-5,10.9l13.7,30.9
					l2.9,6.6l5,11.4l6.1,13.9l16.2,36.6c1.6,3.8,3.3,7.4,5,11.1c1.8,4.2,3.7,8.4,5.6,12.5h-42.8v0.1h-14.1c-0.8,2.9-3.5,5.2-6.6,5.2
					c-3.8,0-6.9-3.1-6.9-6.9c0-3.9,3.1-6.9,6.9-6.9c3.2,0,5.9,2.2,6.6,5.2h4.6c2.6-5.8,5.1-11.5,7.7-17.3L285,252l-49.4,109.6
					c-1.8,3.8,0.5,7.6,4.9,7.6h11.6c2.6,0,4.3-1.8,4.9-3.2c7.1-15.9,14.2-31.9,21.3-47.9H348l6.9,15.4l0.6,1.3
					c0.4,0.9,0.9,2,1.5,3.2c0.1,0.2,0.1,0.4,0.2,0.5c0.2,0.5,0.4,1,0.6,1.5c2.8,7.3,4.3,11,3,14.5c-1.2,3.3-4,5.2-4.1,5.3
					c-1.2,0.8-2.2,1.2-3.4,1.5c-2.3,0.8-5.7,1.7-9.9,2.5l-0.1,5.2c9.1,0.1,18.2,0.1,27.3,0.1H386c0.2,0,0.4,0,0.6-0.1
					c5.9,0,11.7,0,17.5-0.1v-5.2c-4.3-0.8-7.7-1.8-9.9-2.5c-1-0.3-2.4-0.4-3.4-1.5c-0.5-0.5-0.9-1.4-1.9-3.1
					c-0.2-0.3-0.3-0.6-0.5-0.9c-0.1-0.2-0.2-0.5-0.3-0.6s-0.1-0.2-0.2-0.4c-0.2-0.4-0.4-0.9-0.7-1.5l-0.5-0.9
					c-0.3-0.6-0.6-1.4-1-2.3l-0.6-1.4l-0.9-2l-0.8-1.8l-2.3-5.3l-1.5-3.3c-0.1-0.4-0.3-0.7-0.5-1v-0.1l-24.9-55.5l-35.6-79.5
					l-15.3-34.2c-0.9-1.8-2.3-3.2-5-3.2L295.6,162.9L295.6,162.9z"/>
			</defs>
			<clipPath id="SVGID_00000029024451668433335360000017899390639653814670_">
				<use xlink:href="#SVGID_00000183249243709618682340000008015617145438168508_"  style="overflow:visible;"/>
			</clipPath>
			<g style="clip-path:url(#SVGID_00000029024451668433335360000017899390639653814670_);">
				
					<linearGradient id="SVGID_00000174591722210301549770000008963849490259728018_" gradientUnits="userSpaceOnUse" x1="-2697.1316" y1="-1620.6359" x2="-2696.3315" y2="-1620.6359" gradientTransform="matrix(122.784 319.8633 -319.8633 122.784 -186939.7656 1061859.625)">
					<stop  offset="0" style="stop-color:#B18E7F"/>
					<stop  offset="7.000000e-02" style="stop-color:#B18E7F"/>
					<stop  offset="0.32" style="stop-color:#9B552F"/>
					<stop  offset="0.49" style="stop-color:#BB7C3A"/>
					<stop  offset="0.63" style="stop-color:#DAA144"/>
					<stop  offset="0.76" style="stop-color:#D39D45"/>
					<stop  offset="0.79" style="stop-color:#D19C46"/>
					<stop  offset="0.9" style="stop-color:#FCE6AB"/>
					<stop  offset="1" style="stop-color:#FCE6AB"/>
				</linearGradient>
				<polygon style="fill:url(#SVGID_00000174591722210301549770000008963849490259728018_);" points="164.9,189.4 382.3,106 
					473.1,342.7 255.8,426.1 				"/>
			</g>
		</g>
		<g>
			<defs>
				<rect id="SVGID_00000170272302481868479370000002767032887779179906_" x="26.9" y="162.9" width="630.2" height="318"/>
			</defs>
			<clipPath id="SVGID_00000105395594796062981300000004417904842500788409_">
				<use xlink:href="#SVGID_00000170272302481868479370000002767032887779179906_"  style="overflow:visible;"/>
			</clipPath>
			<g style="clip-path:url(#SVGID_00000105395594796062981300000004417904842500788409_);">
				<path class="st5" d="M280.5,298.3c0,2.1-1.7,3.8-3.8,3.8c-2.1,0-3.8-1.7-3.8-3.8c0-2.1,1.7-3.8,3.8-3.8
					C278.8,294.5,280.5,296.2,280.5,298.3"/>
				<path class="st6" d="M280.5,298.3c0,2.1-1.7,3.8-3.8,3.8c-2.1,0-3.8-1.7-3.8-3.8c0-2.1,1.7-3.8,3.8-3.8
					C278.8,294.5,280.5,296.2,280.5,298.3"/>
				<path class="st7" d="M280.5,298.3c0,2.1-1.7,3.8-3.8,3.8c-2.1,0-3.8-1.7-3.8-3.8c0-2.1,1.7-3.8,3.8-3.8
					C278.8,294.5,280.5,296.2,280.5,298.3"/>
			</g>
		</g>
	</g>
	<text transform="matrix(1 0 0 1 27.6874 461.8011)" class="st1 st8 st9 st10">AM</text>
	<text transform="matrix(1 0 0 1 157.9974 461.8011)" class="st1 st8 st9 st10">BE</text>
	<text transform="matrix(1 0 0 1 261.0274 461.8011)" class="st1 st8 st9 st10">R </text>
	<text transform="matrix(1 0 0 1 341.7974 461.8011)" class="st1 st8 st9 st11">A</text>
	<text transform="matrix(1 0 0 1 391.5574 461.8011)" class="st1 st8 st9 st10">Y</text>
	<text transform="matrix(1 0 0 1 445.6174 461.8011)" class="st1 st8 st9 st12">R</text>
	<text transform="matrix(1 0 0 1 504.1374 461.8011)" class="st1 st8 st9">E</text>
</g>
</svg>
