<?xml version="1.0" encoding="UTF-8"?>
<svg id="Layer_1" data-name="Layer 1" xmlns="http://www.w3.org/2000/svg" viewBox="0 0 501.19 501.44">
  <defs>
    <style>
      .cls-1, .cls-2 {
        fill: #f8f7f3;
      }

      .cls-3 {
        fill: #fff;
      }

      .cls-4 {
        fill: #231f20;
      }

      .cls-5 {
        fill: #22413d;
      }

      .cls-2 {
        stroke: #2e282a;
        stroke-miterlimit: 10;
        stroke-width: 1.19px;
      }
    </style>
  </defs>
  <g>
    <rect class="cls-2" x=".6" y=".6" width="166.67" height="166.67"/>
    <g>
      <path class="cls-4" d="m71,39.45c-2.78,8.99-5.55,17.98-8.33,26.96,12.42,0,24.84,0,37.27.01l16.73,63.95h9c-6.36-23.67-12.72-47.33-19.08-71h-31.49c-1.37-6.64-2.73-13.29-4.1-19.93Z"/>
      <path class="cls-4" d="m100.92,83.13h-33l-16.73,63.95h-9c6.36-23.67,12.72-47.33,19.08-71,12.6.07,25.2.14,37.8.21.62,2.28,1.24,4.56,1.86,6.84Z"/>
      <path class="cls-4" d="m108.24,147h8.84l-13.17-49.01c-12.58.02-25.17.04-37.75.06l-1.9,6.99h33l10.97,41.96Z"/>
      <path class="cls-4" d="m96.38,53.36h8.91c-2.87-10.86-5.73-21.72-8.6-32.59-7.49,0-14.99,0-22.48.01-.71,2.34-1.42,4.69-2.14,7.03h17.53c2.26,8.51,4.52,17.03,6.77,25.54Z"/>
    </g>
  </g>
  <g>
    <rect class="cls-2" x="167.26" y=".6" width="166.67" height="166.67"/>
    <g>
      <path class="cls-4" d="m278.42,109.66v1.25s-.02.02-.03.03c-.18,4.31-1.29,8.39-3.14,12.02h-.01c-7.95,4.72-17.23,7.42-27.14,7.42-8.93,0-17.35-2.2-24.75-6.08-2.05-3.56-3.37-7.58-3.77-11.87-.09-.91-.13-1.83-.13-2.77,0-16.29,13.2-29.49,29.48-29.49s29.49,13.2,29.49,29.49Z"/>
      <path class="cls-4" d="m306.48,78.04c-.09,17.45-.18,34.89-.28,52.34h-12.6v-25.44c-1.97,3.2-4.27,6.17-6.85,8.88,0-1.16,0-2.33.02-3.49-.06-.22-.12-.45-.18-.67-.51-1.86-1.12-3.76-1.85-5.69-1.55-4.09-3.65-8.33-6.46-12.64-.48-.74-.99-1.49-1.52-2.23-.02-.03-.03-.05-.06-.08h0c-6.31-8.48-16.4-13.96-27.77-13.96-18.39,0-33.44,14.36-34.54,32.48-.04.7-.06,1.41-.06,2.12,0,3.4.49,6.68,1.4,9.78-12.77-9.75-21.01-25.13-21.01-42.44,0-29.49,23.9-53.39,53.38-53.39,17.55,0,33.12,8.46,42.84,21.54.02.01.04.03.05.05s.03.04.04.06c.03.04.05.07.08.11.83,1.17,1.62,2.34,2.37,3.5,6.32,9.72,10.3,19.23,12.72,28.13.1.34.19.69.28,1.04Z"/>
      <path class="cls-4" d="m293.48,48.87c-.75-1.16-1.54-2.33-2.37-3.5.84,1.13,1.63,2.3,2.37,3.5Z"/>
      <path class="cls-1" d="m278.42,109.66v1.25s-.02.02-.03.03c-8.04,7.18-18.66,11.55-30.29,11.55-10.8,0-20.72-3.76-28.52-10.06-.09-.91-.13-1.83-.13-2.77,0-16.29,13.2-29.49,29.48-29.49s29.49,13.2,29.49,29.49Z"/>
      <path class="cls-1" d="m293.6,77c0,10.1-3.29,19.43-8.86,26.97-1.55-4.09-3.65-8.33-6.46-12.64-.48-.74-.99-1.49-1.52-2.23-.02-.03-.03-.05-.06-.08h0c-6.31-8.48-16.4-13.96-27.77-13.96-18.39,0-33.44,14.36-34.54,32.48-7.32-8.07-11.78-18.78-11.78-30.54,0-25.13,20.37-45.5,45.49-45.5s45.5,20.37,45.5,45.5Z"/>
      <path class="cls-4" d="m291.11,45.37c-.05-.07-.1-.15-.17-.22v-.02c.06.08.11.16.17.24Z"/>
      <path class="cls-4" d="m278.28,91.33c-.48-.74-.99-1.49-1.52-2.23.54.72,1.04,1.46,1.52,2.23Z"/>
      <path class="cls-4" d="m278.42,109.66v1.25s-.02.02-.03.03c-.18,4.31-1.29,8.39-3.14,12.02h-.01c-4.85,9.6-14.81,16.18-26.31,16.18s-20.51-5.97-25.58-14.84c-2.05-3.56-3.37-7.58-3.77-11.87-.09-.91-.13-1.83-.13-2.77,0-16.29,13.2-29.49,29.48-29.49s29.49,13.2,29.49,29.49Z"/>
      <path class="cls-1" d="m278.42,109.66c0,.43-.01.85-.03,1.28-.18,4.31-1.29,8.39-3.14,12.02h-.01c-4.85,9.6-14.81,16.18-26.31,16.18s-20.51-5.97-25.58-14.84c-2.05-3.56-3.37-7.58-3.77-11.87-.09-.91-.13-1.83-.13-2.77,0-16.29,13.2-29.49,29.48-29.49s29.49,13.2,29.49,29.49Z"/>
      <path class="cls-4" d="m286.59,109.66c-.51-1.86-1.12-3.76-1.85-5.69-1.55-4.09-3.65-8.33-6.46-12.64-.48-.74-.99-1.49-1.52-2.23-.02-.03-.03-.05-.06-.08h0c-6.31-8.48-16.4-13.96-27.77-13.96-18.39,0-33.44,14.36-34.54,32.48-.04.7-.06,1.41-.06,2.12,0,3.4.49,6.68,1.4,9.78,4.23,14.34,17.5,24.81,33.2,24.81,12.47,0,23.4-6.6,29.49-16.49v16.49h8.17c.05-10.14.11-20.28.16-30.43,0-1.16,0-2.33.02-3.49-.06-.22-.12-.45-.18-.67Zm-8.17,1.25s-.02.02-.03.03c-.18,4.31-1.29,8.39-3.14,12.02h-.01c-4.85,9.6-14.81,16.18-26.31,16.18s-20.51-5.97-25.58-14.84c-2.05-3.56-3.37-7.58-3.77-11.87-.09-.91-.13-1.83-.13-2.77,0-16.29,13.2-29.49,29.48-29.49s29.49,13.2,29.49,29.49v1.25Z"/>
    </g>
  </g>
  <g>
    <rect class="cls-2" x="333.93" y=".6" width="166.67" height="166.67"/>
    <g>
      <path class="cls-4" d="m427.68,91.24l-1.38,5.81c-8.89-.09-17.78-.18-26.67-.27-4.88,19.18-9.75,38.36-14.63,57.55,2.3.12,4.6.24,6.9.37l11.88-49.11,27.11.86.74-3.11c-.69-4.01-1.37-8.03-2.06-12.04-.63-.02-1.26-.04-1.89-.06Z"/>
      <path class="cls-4" d="m441.11,64.55l4.64-19.44-6.81-.22c-2.07,8.69-4.13,17.38-6.2,26.07,2.34.14,4.68.29,7.03.43.45-2.28.9-4.56,1.35-6.84Z"/>
      <path class="cls-4" d="m398.2,13.41l9.06,59.54c10.04.56,20.08,1.12,30.12,1.69,4.05,24.3,8.1,48.6,12.15,72.9-2.6-.02-5.21-.04-7.81-.07l-9.68-62.16-30.66-.98-10.87-71.17,7.7.25Z"/>
    </g>
  </g>
  <g>
    <rect class="cls-2" x=".6" y="167.26" width="166.67" height="166.67"/>
    <g>
      <path class="cls-4" d="m79.51,188.54c-4.2.16-10.07,1.04-15.69,4.6-2.24,1.42-1.99,1.71-5.77,4.77-9.86,7.98-13.88,7.85-17.5,13.48-1.52,2.37-.38,1.72-3.16,8.32-4.36,10.37-6.5,10.34-7.79,16.07-1.54,6.83.09,13.13.62,15.2,1.4,5.42,2.88,5.74,3.44,10.33.68,5.55-1.26,7.05-1.15,12.91.11,5.83,2.13,10.22,3.14,12.35,1.37,2.89,5.27,11.16,13.5,14.61,5.95,2.49,8.78.21,14.64,3.94,2.67,1.7,3.34,3.22,6.58,4.95,3.54,1.88,6.96,2.44,9.35,2.6,0-1.33,0-2.67,0-4-.08-40.04-.15-80.08-.23-120.11Z"/>
      <path class="cls-4" d="m88.35,188.54c4.2.16,10.07,1.04,15.69,4.6,2.24,1.42,1.99,1.71,5.77,4.77,9.86,7.98,13.88,7.85,17.5,13.48,1.52,2.37.38,1.72,3.16,8.32,4.36,10.37,6.5,10.34,7.79,16.07,1.54,6.83-.09,13.13-.62,15.2-1.4,5.42-2.88,5.74-3.44,10.33-.68,5.55,1.26,7.05,1.15,12.91-.11,5.83-2.13,10.22-3.14,12.35-1.37,2.89-5.27,11.16-13.5,14.61-5.95,2.49-8.78.21-14.64,3.94-2.67,1.7-3.34,3.22-6.58,4.95-3.54,1.88-6.96,2.44-9.35,2.6,0-1.33,0-2.67,0-4,.08-40.04.15-80.08.23-120.11Z"/>
      <path class="cls-1" d="m53.86,285.26c-4.56.11-9.44-.42-13.39-2.88-4.53-2.83-6.03-7.95-5.26-13.05.73-4.82,2.88-10.1,6.52-13.45,1.98-1.81,4.36-2.74,6.98-3.22,2.9-.53,6.05-.64,8.82.54,2.44,1.04,4.66,3.09,5.17,5.79.4,2.15-.66,5.18-2.98,5.76-.49.12-1.69.6-1.5,1.3s1.5.49,1.95.37c2.68-.67,4.98-2.52,5.81-5.22s-.22-5.38-2.13-7.28c-4.73-4.73-12.83-4.09-18.66-2.14s-9.91,7.01-12.06,12.87-2.64,12.47,1.78,17.12,11.58,5.54,17.62,5.4c.74-.02,1.87-.23,2.28-.93s-.34-.99-.93-.98h0Z"/>
      <path class="cls-1" d="m62.95,271.99c5.71,0,10.21-4.27,11.97-9.46.89-2.61,1.15-5.36.69-8.08-.57-3.39-2.48-5.89-5.54-7.44s-6.15-2.39-9.1-3.88c-2.8-1.41-5.52-3.14-7.59-5.53-4.27-4.93-4.65-12.51-.21-17.5,1.97-2.22,4.73-3.68,7.64-4.21,3.26-.6,6.45.14,9.41,1.52,6.28,2.92,12.09,7.86,19.49,6.91s11.01-7.97,12.78-14.53.89-13.67-4.04-18.45c-4.32-4.19-11.33-5.5-16.52-2.07-2.17,1.44-3.57,3.73-3.38,6.37.17,2.35,1.51,4.67,3.61,5.78,1.16.62,2.41.81,3.71.74.72-.04,1.82-.53,1.91-1.35s-.93-1.09-1.58-1.06c-2.03.12-3.51-1.9-3.99-3.67-.59-2.16.18-4.29,2.14-5.45,4.89-2.88,10.77,1,13.3,5.2,3.4,5.67,2.36,12.64-.15,18.43-1.15,2.65-2.64,5.61-5.33,6.97s-6.21.63-8.98-.41c-5.91-2.22-10.74-6.78-17.23-7.5-5.63-.62-11.71,1.48-15.55,5.68s-5.13,10.79-2.75,16.08,7.3,8.45,12.34,10.77c3,1.38,6.48,2.16,9.17,4.13s3.34,5.46,3.13,8.56c-.35,4.97-3.38,11-9.03,11-.72,0-1.82.56-1.91,1.35-.1.89.94,1.06,1.58,1.06h0Z"/>
      <path class="cls-1" d="m79.43,231.42c6.99,3.94,16.01,3.53,22.83-.6,1.75-1.06,3.24-2.41,4.63-3.89s2.77-3.04,4.77-3.67c3.59-1.13,7.77.41,10.51,2.79,3.3,2.86,4.89,7.24,5.62,11.43s1.16,9.57-.99,13.63c-1.79,3.39-5.27,5.99-9.15,6.23s-7.6-1.84-9.56-5.02c-2.06-3.33-1.3-8.47,2.27-10.51,3.31-1.89,8.28,1.16,8.1,4.97-.08,1.71,3.42,1.16,3.49-.3.21-4.35-3.95-7.34-7.96-7.63-4.58-.33-8.75,2.76-10.1,7.08s.57,8.48,4.03,11.07c3.7,2.77,8.71,3.46,13.07,2.01s8.21-4.81,9.82-9.18c.99-2.68,1.11-5.51.96-8.34-.13-2.51-.43-5.01-1.07-7.45-1.23-4.66-3.85-9.12-8.17-11.5-3.98-2.2-9-2.79-13.2-.84-2.59,1.2-4.31,3.39-6.29,5.35-1.78,1.76-4,3.07-6.38,3.83-4.8,1.52-10.14,1.13-14.55-1.36-.75-.42-1.79-.27-2.47.24-.52.38-.97,1.26-.21,1.68h0Z"/>
      <path class="cls-1" d="m92.2,248.36c-1.21,5.55,2.89,10.28,7.3,13.04,5.21,3.25,11.47,4.15,16.98,6.76,4.94,2.33,8.7,6.26,10.37,11.51,1.53,4.82,1.18,10.2-1.37,14.6-5.53,9.54-18.55,12.16-28.71,12.14-5.41,0-11.29-1.13-15.13-5.26s-4.52-10.72-3.91-16.28c.17-1.54.35-3.2,1.14-4.56.93-1.6,2.72-2.51,4.28-3.36,3.04-1.67,6.66-3.41,9.89-1.17,2.66,1.85,4.27,5.59,4.91,8.66.35,1.67.37,3.55-.55,5.05-.77,1.25-1.68,1.96-3.08,1.35-.68-.3-1.81.08-2.42.41-.41.22-1.1.71-.39,1.01,2.68,1.17,6.22-.03,8.25-1.98,2.6-2.5,2.04-6.31.86-9.36-1.12-2.88-2.74-5.84-5.7-7.12-3.25-1.41-7.15-.47-10.28.83-1.71.71-3.35,1.59-4.95,2.52-1.39.81-2.81,1.7-3.78,3.02-1.81,2.47-1.83,6.27-1.84,9.23-.02,6.34,2.19,12.65,8.03,15.82s12.37,3.06,18.51,2.44,12.88-2.07,18.58-5.1c5.17-2.75,9.76-7.04,11.36-12.83,1.5-5.43.43-11.44-2.75-16.08-3.83-5.59-10.1-7.75-16.27-9.79s-13.41-4.8-15.66-11.47c-.5-1.5-.6-3.05-.27-4.59.2-.91-3.21-.38-3.42.56h0Z"/>
      <ellipse class="cls-1" cx="93.13" cy="248.81" rx="4.55" ry="4.3"/>
      <ellipse class="cls-1" cx="86.06" cy="200.97" rx="4.55" ry="4.3"/>
      <ellipse class="cls-1" cx="53.18" cy="286.22" rx="4.55" ry="4.3"/>
      <ellipse class="cls-1" cx="80.78" cy="230.46" rx="4.55" ry="4.3"/>
    </g>
  </g>
  <g>
    <rect class="cls-2" x="167.01" y="167.26" width="166.67" height="166.67"/>
    <g>
      <path class="cls-4" d="m285.58,287.11v-43c1.27-.18,2.48-.24,3.76-.24,12.72,0,24.35,8.78,24.35,22.11,0,12.17-9.81,21.98-21.98,21.98-2.12,0-4.18-.3-6.12-.85Z"/>
      <path class="cls-4" d="m249.34,271.04c-.08-.9-.14-1.82-.14-2.77v-55.1c-4.53.35-7.56,1.71-9.38,2.75-5.5,3.15-6.67,7.89-14.45,17.68-2.5,3.15-4.54,5.84-6,7.8,2.61.66,7.47,2.28,11.79,6.52,1.24,1.22,6.67,6.8,7.53,14.99.26,2.51,0,4.3.3,16.02.03,1.17.08,2.48.81,3.91,2.14,4.17,7.99,5.26,9.86,5.38-.15-1.08-.34-2.15-.34-3.26v-13.92Z"/>
      <path class="cls-4" d="m282.26,274.76c-.06,1.29-.41,5.25-3.48,8.58-3.68,3.99-8.62,4.22-10.04,4.28-2.99.13-5.37-.62-6.72-1.16.73-.83,1.79-2.24,2.43-4.24.35-1.09.48-2.07.53-2.86l.04-12.78c0-10.78,7.33-19.87,17.32-22.41-.03,10.2-.05,20.39-.08,30.59Z"/>
      <path class="cls-4" d="m209,287.96c-12.17,0-21.98-9.81-21.98-21.98,0-13.32,11.63-22.11,24.35-22.11,1.27,0,2.48.06,3.76.24v43c-1.94.54-4,.85-6.12.85Z"/>
      <path class="cls-4" d="m218.35,244.17c9.99,2.54,17.32,11.63,17.32,22.41.01,4.26.02,8.52.04,12.78.05.79.18,1.77.53,2.86.64,2,1.69,3.42,2.43,4.24-1.34.54-3.72,1.3-6.72,1.16-1.42-.06-6.36-.29-10.04-4.28-3.07-3.33-3.42-7.3-3.48-8.58-.03-10.2-.05-20.39-.08-30.59Z"/>
      <path class="cls-4" d="m251.15,271.04c.08-.9.14-1.82.14-2.77v-55.3c4.52.46,7.55,1.87,9.38,2.95,5.48,3.23,6.67,7.89,14.45,17.68,2.5,3.15,4.54,5.84,6,7.8-2.61.66-7.47,2.28-11.79,6.52-1.24,1.22-6.67,6.8-7.53,14.99-.26,2.51,0,4.3-.3,16.02-.03,1.17-.08,2.48-.81,3.91-2.14,4.17-7.99,5.26-9.86,5.38.15-1.08.34-2.15.34-3.26v-13.92Z"/>
    </g>
  </g>
  <g>
    <rect class="cls-2" x="333.93" y="167.23" width="166.67" height="166.67"/>
    <g>
      <path d="m456.12,274.59v-60.92h-14.22c-7.03-7.15-16.81-11.58-27.64-11.58-21.43,0-38.81,17.37-38.81,38.81s17.37,38.81,38.81,38.81c2.22,0,4.39-.19,6.51-.56,1.41-4.31,5.47-7.4,10.26-7.4,1.83,0,3.54.45,5.04,1.27.07-.06.14-.1.22-.16v.27c3.31,1.84,5.55,5.37,5.55,9.44,0,1.3-.23,2.54-.66,3.69-.03.01-.07.04-.12.06-4.96,2.56-10.39,4.35-16.13,5.19-2.49.39-5.06.58-7.66.58-28.68,0-51.95-23.25-51.95-51.95s23.26-51.96,51.95-51.96,51.96,23.26,51.96,51.96c0,13.22-4.96,25.31-13.09,34.47Z"/>
      <path class="cls-3" d="m436.07,273.01c-1.6,1.08-3.27,2.05-5.01,2.88-1.48.72-3.03,1.34-4.61,1.86h-.01c-1.83.6-3.72,1.08-5.66,1.4,1.41-4.31,5.47-7.4,10.26-7.4,1.83,0,3.54.45,5.04,1.27Z"/>
      <path class="cls-1" d="m456.12,213.67v72.63h-4.81v-44.71h-9.87c.01-.49.03-.98.03-1.47,0-5.98-1.92-11.5-5.19-15.98-1.01-1.4-2.15-2.69-3.4-3.86-4.87-4.58-11.42-7.39-18.63-7.39-15.04,0-27.23,12.19-27.23,27.23s12.19,27.21,27.23,27.21c9.06,0,17.08-4.44,22.03-11.24,2.35-3.21,3.99-6.94,4.72-11.01h6.8v41.21h-6.66s.03-.04.01-.06c.43-1.15.66-2.39.66-3.69,0-4.06-2.23-7.59-5.55-9.44v-.27c-.07.06-.14.1-.22.16-1.5-.82-3.21-1.27-5.04-1.27-4.78,0-8.84,3.1-10.26,7.4-2.12.37-4.29.56-6.51.56-21.43,0-38.81-17.39-38.81-38.81s17.37-38.81,38.81-38.81c10.83,0,20.61,4.44,27.64,11.58h14.22Z"/>
      <path class="cls-3" d="m441.83,282.56c0,1.3-.23,2.54-.66,3.69.01.01,0,.04-.01.06h-4.87v-13.18c3.31,1.84,5.55,5.37,5.55,9.44Z"/>
      <path d="m441.83,282.56c0,1.3-.23,2.54-.66,3.69.01.01,0,.04-.01.06-1.51,4.12-5.47,7.07-10.13,7.07-2.28,0-4.38-.69-6.11-1.89-2.85-1.96-4.71-5.23-4.71-8.93,0-1.2.19-2.35.56-3.41,1.41-4.31,5.47-7.4,10.26-7.4,1.83,0,3.54.45,5.04,1.27.07.03.14.06.22.12,3.31,1.84,5.55,5.37,5.55,9.44Z"/>
      <circle class="cls-1" cx="431.03" cy="282.52" r="6.63"/>
      <path class="cls-4" d="m451.31,303.86v1.22h-3.5v-1.22c.49-.35,1.11-.55,1.76-.55s1.25.2,1.74.55Z"/>
      <path class="cls-4" d="m451.31,299.96v-58.37h-9.87c.01-.49.03-.98.03-1.47,0-5.98-1.92-11.5-5.19-15.98-1.01-1.4-2.15-2.69-3.4-3.86-4.87-4.58-11.42-7.39-18.63-7.39-15.04,0-27.23,12.19-27.23,27.23s12.19,27.21,27.23,27.21c9.06,0,17.08-4.44,22.03-11.24,2.35-3.21,3.99-6.94,4.72-11.01h6.8v54.87c-2.82.76-4.88,3.33-4.88,6.38,0,3.66,2.97,6.63,6.64,6.63s6.63-2.97,6.63-6.63c0-3.05-2.07-5.63-4.88-6.38Zm-1.74,9.41c-1.67,0-3.03-1.35-3.03-3.03,0-1.02.5-1.92,1.27-2.48.49-.35,1.11-.55,1.76-.55s1.25.2,1.74.55c.76.56,1.27,1.45,1.27,2.48,0,1.67-1.35,3.03-3.01,3.03Z"/>
      <path class="cls-4" d="m452.58,306.34c0,1.67-1.35,3.03-3.01,3.03s-3.03-1.35-3.03-3.03c0-1.02.5-1.92,1.27-2.48.49-.35,1.11-.55,1.76-.55s1.25.2,1.74.55c.76.56,1.27,1.45,1.27,2.48Z"/>
      <path class="cls-1" d="m452.58,306.34c0,1.67-1.35,3.03-3.01,3.03s-3.03-1.35-3.03-3.03c0-1.02.5-1.92,1.27-2.48.49-.35,1.11-.55,1.76-.55s1.25.2,1.74.55c.76.56,1.27,1.45,1.27,2.48Z"/>
    </g>
  </g>
  <g>
    <rect class="cls-2" x=".6" y="333.93" width="166.67" height="166.67"/>
    <path class="cls-4" d="m150.23,481.61l-24.94-55.59-24.25-54-10.43-23.28c-.6-1.17-1.59-2.17-3.36-2.17h-1.97c-1.79,0-2.76,1-3.36,2.17l-3.36,7.43,9.3,20.99,1.99,4.47,3.44,7.76,4.17,9.44,11.03,24.86c1.14,2.53,2.25,5.05,3.38,7.57,1.25,2.85,2.53,5.67,3.8,8.49h-16.01l.52-1.16c1.75-3.94,3.48-7.85,5.23-11.79l-7.22-18.46-14.19,31.41h-6.86c-1.81-3.08-5.15-5.14-8.97-5.14-5.74,0-10.39,4.65-10.39,10.39s4.65,10.39,10.39,10.39c3.05,0,5.79-1.31,7.69-3.4h2.61l-13.93,30.84c-1.19,2.56.38,5.13,3.34,5.13h7.91c1.77,0,2.97-1.19,3.36-2.17,1.41-3.16,2.81-6.3,4.22-9.46l-.06-.02,3.75-8.38h19.6c.92,2.49,3.31,4.27,6.12,4.27,3.61,0,6.53-2.92,6.53-6.53s-2.92-6.53-6.53-6.53c-2.73,0-5.07,1.68-6.04,4.07h-17.57l5.01-11.22h26.84l14.6,32.58c.38.97,1.57,2.17,3.34,2.17h7.91c2.96,0,4.54-2.57,3.36-5.13Zm-77.08-31.92c-.83.92-1.93,1.64-3.21,2.01-3.7,1.07-7.57-1.05-8.65-4.75s1.05-7.57,4.75-8.65c2.65-.77,5.38.1,7.11,2.01.7.76,1.23,1.68,1.54,2.74.71,2.41.04,4.9-1.54,6.64Zm35.4,15.39c.24-2.12,2.05-3.77,4.23-3.77,2.35,0,4.26,1.91,4.26,4.26s-1.91,4.26-4.26,4.26c-2.18,0-3.99-1.65-4.23-3.77-.02-.16-.03-.32-.03-.49s0-.33.03-.49Z"/>
    <path class="cls-4" d="m82.43,381.39c-2.58,5.8-5.17,11.63-7.75,17.43-7.89,17.73-15.76,35.44-23.65,53.17-4.83,10.85-9.68,21.72-14.51,32.58-.4.97-1.59,2.17-3.36,2.17h-7.91c-2.96,0-4.53-2.56-3.34-5.13l52.95-117.27c2.27,5.09,4.51,10.18,6.78,15.26.24.56.5,1.11.74,1.67l.06.12Z"/>
    <polygon class="cls-3" points="83.4 379.23 82.43 381.39 82.37 381.27 83.3 379.19 83.4 379.23"/>
    <path class="cls-1" d="m73.15,449.69c-.83.92-1.93,1.64-3.21,2.01-3.7,1.07-7.57-1.05-8.65-4.75s1.05-7.57,4.75-8.65c2.65-.77,5.38.1,7.11,2.01.7.76,1.23,1.68,1.54,2.74.71,2.41.04,4.9-1.54,6.64Z"/>
    <path class="cls-5" d="m108.55,465.08v.98c-.02-.16-.03-.32-.03-.49s0-.33.03-.49Z"/>
    <path class="cls-5" d="m108.55,465.08v.98c-.02-.16-.03-.32-.03-.49s0-.33.03-.49Z"/>
    <path class="cls-1" d="m117.04,465.57c0,2.35-1.91,4.26-4.26,4.26-2.18,0-3.99-1.65-4.23-3.77v-.98c.24-2.12,2.05-3.77,4.23-3.77,2.35,0,4.26,1.91,4.26,4.26Z"/>
    <path class="cls-3" d="m108.55,465.08v.98c-.02-.16-.03-.32-.03-.49s0-.33.03-.49Z"/>
  </g>
  <g>
    <rect class="cls-2" x="166.8" y="333.93" width="166.67" height="166.67"/>
    <g id="GgzCKm">
      <path class="cls-4" d="m216.34,467.04c31.42,6.39,55.7,1.89,60.76-4.88,3.16-4.22,5.19-9.66,5.19-9.66,1.5-4.02,2.62-7.03,2.02-10.09-.74-3.74-4.59-6.2-12.25-10.95-17.69-10.98-19.28-13.17-24.76-13.33-2.35-.07-6.85.16-11.79,1.92-4.89,1.74-5.11,3.16-8.6,4.06-5.16,1.33-12.67.27-16.96-4.78-3.72-4.37-3.39-9.81-3.1-14.51.13-2.16.61-9.95,6.39-16.76,3.12-3.68,6.34-5.59,10.38-7.98,5.96-3.53,11.17-5.18,13.57-5.85,6.55-1.85,12.34-2.18,16.56-2.08,3.33-.21,7.84,0,12.71,1.81,4.86,1.8,7.94,4.39,10.93,6.92,4.02,3.38,6.18,5.2,7.69,8.52,1.45,3.17,1.11,5.1,2.97,8.92.2.42.66,1.33.72,2.59.04.86-.09,2.25-1.3,4.18-4.67,7.51-11.12,9.95-11.12,9.95-8.07,3.05-14.62-.57-15.29.96-1.35,3.1,27.51,13.56,27.2,27.02-.07,2.87-1.51,7.07-4.49,15.43-1.09,3.05-2.07,5.56-2.77,7.28,7.1-.05,14.19-.1,21.29-.15-.37-.53-.89-1.37-1.29-2.49-.38-1.07-1.2-3.26-.35-5.19.47-1.08,1.36-2.03,2.73-2.75,5.35-2.8,5.77-3.94,2.37-8.95-6.28-9.26-10.05-19.2-8.74-30.86.31-2.78.05-5.66-.11-8.48-.48-8.38-2.8-16.15-8.03-22.59-25.72-31.63-75.51-24.12-91.03,12.78-4.67,11.11-6.4,22.12-5,32.85.81,6.19,2.28,17.25,10.86,27.14,4.48,5.17,9.34,8.24,12.65,9.99Z"/>
    </g>
  </g>
  <g>
    <rect class="cls-2" x="333.93" y="334.18" width="166.67" height="166.67"/>
    <g>
      <path class="cls-4" d="m453.65,429.94h-24.04l-12.32-27.08-37.35,82.04h-23.65c-.15,0-.27.05-.42.05l61.42-134.87,36.37,79.86Z"/>
      <polygon class="cls-4" points="436.28 444.24 436.2 444.43 436.08 444.15 436.28 444.24"/>
      <polygon class="cls-4" points="478.67 484.9 454.63 484.9 436.2 444.43 436.28 444.24 436.08 444.15 436.04 444.05 460.06 444.05 478.67 484.9"/>
      <polygon class="cls-4" points="436.08 444.15 436.2 444.43 419.2 484.84 403.88 484.84 421.04 444.09 435.93 444.09 436.08 444.15"/>
      <polygon class="cls-4" points="436.28 444.24 436.2 444.43 436.08 444.15 436.28 444.24"/>
      <rect class="cls-4" x="411.1" y="429.94" width="42.55" height="2.55"/>
      <rect class="cls-4" x="416.37" y="461.92" width="21.27" height="2.55"/>
      <circle class="cls-4" cx="412.82" cy="431.22" r="3.54"/>
      <circle class="cls-4" cx="437.22" cy="463.03" r="3.54"/>
    </g>
  </g>
</svg>