<?xml version="1.0" encoding="UTF-8"?>
<svg id="Layer_1" data-name="Layer 1" xmlns="http://www.w3.org/2000/svg" viewBox="0 0 150 150">
  <defs>
    <style>
      .cls-1 {
        stroke-width: 5.57px;
      }

      .cls-1, .cls-2 {
        fill: #353b3c;
        stroke: #353b3c;
        stroke-linecap: round;
        stroke-linejoin: round;
      }

      .cls-2 {
        stroke-width: 5.57px;
      }
    </style>
  </defs>
  <path class="cls-1" d="m75,127.5c-10.73.07-21.46.15-32.18.21v14.28H7.39V46.55h37.41c10.06,26.99,20.13,53.97,30.19,80.95Z"/>
  <path class="cls-2" d="m70.17,89.18c-7.38-19.82-14.76-39.65-22.15-59.47-2.69-7.23-5.38-14.46-8.08-21.69,0,0,0-.02,0-.02h34.18c4.49,12.04,8.98,24.08,13.47,36.12-2.64,7.35-5.43,14.83-8.36,22.42-2.99,7.74-6.01,15.29-9.06,22.65Z"/>
  <path class="cls-2" d="m142.61,23.44v118.56h-35.42v-37.39c-10.73-.07-21.46-.14-32.19-.21,10.07-26.99,20.13-53.97,30.19-80.95h37.41Z"/>
</svg>