<?xml version="1.0" encoding="UTF-8"?>
<svg xmlns="http://www.w3.org/2000/svg" viewBox="0 0 1500 1500">
  <defs>
    <style>
      .cls-1 {
        fill: #9fb6c4;
      }

      .cls-2 {
        fill: #83a8bb;
      }

      .cls-2, .cls-3 {
        mix-blend-mode: multiply;
      }

      .cls-4 {
        isolation: isolate;
      }

      .cls-3 {
        opacity: .3;
      }
    </style>
  </defs>
  <g class="cls-4">
    <g id="Layer_1" data-name="Layer 1">
      <g>
        <g>
          <path class="cls-2" d="m1340.94,448.55c-81.76,217.92-163.51,435.84-245.27,653.76-228.46.11-456.93.21-685.39.32,83.47-48.59,166.95-97.18,250.42-145.77,18.07-27.75,296.51-454.63,355.07-515.79,15.52-16.21,33.64-26.16,33.64-26.16,37.48-20.63,77.57-19.16,104.65-14.95,62.29,16.2,124.59,32.39,186.88,48.59Z"/>
          <path class="cls-3" d="m1340.94,448.55c-81.76,217.92-163.51,435.84-245.27,653.76-228.46.11-456.93.21-685.39.32,83.47-48.59,166.95-97.18,250.42-145.77,18.07-27.75,296.51-454.63,355.07-515.79,15.52-16.21,33.64-26.16,33.64-26.16,37.48-20.63,77.57-19.16,104.65-14.95,62.29,16.2,124.59,32.39,186.88,48.59Z"/>
        </g>
        <path class="cls-1" d="m500.85,914.26c-29.62-8.91-57.43-15.13-82.68-19.48-13.78-3.26-44.21-8.46-79.76,2.74-26.73,8.43-45.09,22.57-55.1,31.6-.17,1.68-.35,3.36-.52,5.03.94.83,2.36,1.97,4.33,3.19.27.16.32.18.32.21.28,2.74-117.65,16.7-128.38,96.6,9.2-3.84,18.4-7.68,27.6-11.52,40.82,4.05,81.64,8.09,122.46,12.14,7.03,5.16,14.06,10.33,21.09,15.49,14.88,17.23,29.76,34.46,44.63,51.7,80.35-47.2,160.69-94.4,241.04-141.6-31.71-16.09-70.18-32.6-115.03-46.09Z"/>
      </g>
    </g>
  </g>
</svg>