<?xml version="1.0" encoding="UTF-8"?>
<svg xmlns="http://www.w3.org/2000/svg" viewBox="0 0 1500 1500">
  <defs>
    <style>
      .cls-1 {
        fill: #fff;
      }

      .cls-2 {
        fill: #9fb6c4;
      }

      .cls-3 {
        fill: #bc8148;
      }

      .cls-4 {
        fill: #d0b787;
      }

      .cls-5 {
        fill: #222;
      }

      .cls-6 {
        fill: #83a8bb;
      }

      .cls-6, .cls-7, .cls-8, .cls-9 {
        mix-blend-mode: multiply;
      }

      .cls-10 {
        isolation: isolate;
      }

      .cls-8 {
        opacity: .3;
      }

      .cls-9 {
        opacity: .2;
      }
    </style>
  </defs>
  <g class="cls-10">
    <g id="Layer_1" data-name="Layer 1">
      <g>
        <g>
          <path class="cls-6" d="m1343.3,172.67c-81.76,217.92-163.51,435.84-245.27,653.76-228.46.11-456.93.21-685.39.32,83.47-48.59,166.95-97.18,250.42-145.77,18.07-27.75,296.51-454.63,355.07-515.79,15.52-16.21,33.64-26.16,33.64-26.16,37.48-20.63,77.57-19.16,104.65-14.95,62.29,16.2,124.59,32.39,186.88,48.59Z"/>
          <path class="cls-8" d="m1343.3,172.67c-81.76,217.92-163.51,435.84-245.27,653.76-228.46.11-456.93.21-685.39.32,83.47-48.59,166.95-97.18,250.42-145.77,18.07-27.75,296.51-454.63,355.07-515.79,15.52-16.21,33.64-26.16,33.64-26.16,37.48-20.63,77.57-19.16,104.65-14.95,62.29,16.2,124.59,32.39,186.88,48.59Z"/>
        </g>
        <path class="cls-2" d="m503.21,638.38c-29.62-8.91-57.43-15.13-82.68-19.48-13.78-3.26-44.21-8.46-79.76,2.74-26.73,8.43-45.09,22.57-55.1,31.6-.17,1.68-.35,3.36-.52,5.03.94.83,2.36,1.97,4.33,3.19.27.16.32.18.32.21.28,2.74-117.65,16.7-128.38,96.6,9.2-3.84,18.4-7.68,27.6-11.52,40.82,4.05,81.64,8.09,122.46,12.14,7.03,5.16,14.06,10.33,21.09,15.49,14.88,17.23,29.76,34.46,44.63,51.7,80.35-47.2,160.69-94.4,241.04-141.6-31.71-16.09-70.18-32.6-115.03-46.09Z"/>
        <g>
          <g>
            <g>
              <g class="cls-7">
                <path class="cls-1" d="m73.03,1125.55l18.82-20.86h139.18c27.31,0,40.56-8.25,40.56-24.3,0-20.17-19.35-22.69-52.5-22.69h-71.58c-44.8,0-65.74-14.89-65.74-41.71s21.74-43.78,70.52-43.78h143.41l-18.55,21.08h-126.99c-27.04,0-40.56,8.26-40.56,24.3,0,19.48,18.82,21.78,52.49,21.78h71.58c43.21,0,65.48,13.52,65.48,41.26,0,29.34-21.47,44.92-70.25,44.92H73.03Z"/>
              </g>
              <g class="cls-7">
                <path class="cls-1" d="m419.62,1125.55c-58.84,0-102.06-33.7-102.06-78.16s43.21-75.18,102.06-75.18h112.16l-18.82,21.08h-93.34c-34.71,0-73.42,16.97-73.42,55.24s38.97,56.16,89.07,56.16h96.51l-18.82,20.86h-93.34Z"/>
              </g>
              <path class="cls-1" d="m605.35,1125.55l17.48-20.86h123.53l-81.66-106.35-99.4,127.21h-33.93l115.05-146c3.71-4.82,10.08-9.4,18.82-9.4s14.83,4.12,18.82,9.4l113.45,146h-192.18Z"/>
              <g class="cls-7">
                <path class="cls-1" d="m815.98,1125.55v-153.34h28.62v132.48h147.9l-18.82,20.86h-157.7Z"/>
              </g>
              <g class="cls-7">
                <path class="cls-1" d="m1010.12,1125.55v-153.34h188.23l-18.82,21.08h-140.76v46.08h151.38l-16.45,18.33h-134.93v46.99h160.92l-18.82,20.86h-170.74Z"/>
              </g>
              <g class="cls-7">
                <path class="cls-1" d="m1217.55,1125.55v-95.59h28.62v74.73h81.64c40.58,0,70.8-23.61,70.8-56.16s-30.5-55.24-70.8-55.24h-110.26l18.54-21.08h91.72c57.55,0,99.16,30.94,99.16,75.18s-42.16,78.16-99.16,78.16h-110.26Z"/>
              </g>
            </g>
            <g>
              <g>
                <path class="cls-3" d="m73.03,1125.55l18.82-20.86h139.18c27.31,0,40.56-8.25,40.56-24.3,0-20.17-19.35-22.69-52.5-22.69h-71.58c-44.8,0-65.74-14.89-65.74-41.71s21.74-43.78,70.52-43.78h143.41l-18.55,21.08h-126.99c-27.04,0-40.56,8.26-40.56,24.3,0,19.48,18.82,21.78,52.49,21.78h71.58c43.21,0,65.48,13.52,65.48,41.26,0,29.34-21.47,44.92-70.25,44.92H73.03Z"/>
                <path class="cls-3" d="m73.03,1125.55l18.82-20.86h139.18c27.31,0,40.56-8.25,40.56-24.3,0-20.17-19.35-22.69-52.5-22.69h-71.58c-44.8,0-65.74-14.89-65.74-41.71s21.74-43.78,70.52-43.78h143.41l-18.55,21.08h-126.99c-27.04,0-40.56,8.26-40.56,24.3,0,19.48,18.82,21.78,52.49,21.78h71.58c43.21,0,65.48,13.52,65.48,41.26,0,29.34-21.47,44.92-70.25,44.92H73.03Z"/>
              </g>
              <g>
                <path class="cls-3" d="m419.62,1125.55c-58.84,0-102.06-33.7-102.06-78.16s43.21-75.18,102.06-75.18h112.16l-18.82,21.08h-93.34c-34.71,0-73.42,16.97-73.42,55.24s38.97,56.16,89.07,56.16h96.51l-18.82,20.86h-93.34Z"/>
                <path class="cls-3" d="m419.62,1125.55c-58.84,0-102.06-33.7-102.06-78.16s43.21-75.18,102.06-75.18h112.16l-18.82,21.08h-93.34c-34.71,0-73.42,16.97-73.42,55.24s38.97,56.16,89.07,56.16h96.51l-18.82,20.86h-93.34Z"/>
              </g>
              <path class="cls-3" d="m605.35,1125.55l17.48-20.86h123.53l-81.66-106.35-99.4,127.21h-33.93l115.05-146c3.71-4.82,10.08-9.4,18.82-9.4s14.83,4.12,18.82,9.4l113.45,146h-192.18Z"/>
              <g>
                <path class="cls-3" d="m815.98,1125.55v-153.34h28.62v132.48h147.9l-18.82,20.86h-157.7Z"/>
                <path class="cls-3" d="m815.98,1125.55v-153.34h28.62v132.48h147.9l-18.82,20.86h-157.7Z"/>
              </g>
              <g>
                <path class="cls-3" d="m1010.12,1125.55v-153.34h188.23l-18.82,21.08h-140.76v46.08h151.38l-16.45,18.33h-134.93v46.99h160.92l-18.82,20.86h-170.74Z"/>
                <path class="cls-3" d="m1010.12,1125.55v-153.34h188.23l-18.82,21.08h-140.76v46.08h151.38l-16.45,18.33h-134.93v46.99h160.92l-18.82,20.86h-170.74Z"/>
              </g>
              <g>
                <path class="cls-3" d="m1217.55,1125.55v-95.59h28.62v74.73h81.64c40.58,0,70.8-23.61,70.8-56.16s-30.5-55.24-70.8-55.24h-110.26l18.54-21.08h91.72c57.55,0,99.16,30.94,99.16,75.18s-42.16,78.16-99.16,78.16h-110.26Z"/>
                <path class="cls-3" d="m1217.55,1125.55v-95.59h28.62v74.73h81.64c40.58,0,70.8-23.61,70.8-56.16s-30.5-55.24-70.8-55.24h-110.26l18.54-21.08h91.72c57.55,0,99.16,30.94,99.16,75.18s-42.16,78.16-99.16,78.16h-110.26Z"/>
              </g>
            </g>
            <g class="cls-9">
              <g>
                <path d="m73.03,1125.55l18.82-20.86h139.18c27.31,0,40.56-8.25,40.56-24.3,0-20.17-19.35-22.69-52.5-22.69h-71.58c-44.8,0-65.74-14.89-65.74-41.71s21.74-43.78,70.52-43.78h143.41l-18.55,21.08h-126.99c-27.04,0-40.56,8.26-40.56,24.3,0,19.48,18.82,21.78,52.49,21.78h71.58c43.21,0,65.48,13.52,65.48,41.26,0,29.34-21.47,44.92-70.25,44.92H73.03Z"/>
                <path d="m73.03,1125.55l18.82-20.86h139.18c27.31,0,40.56-8.25,40.56-24.3,0-20.17-19.35-22.69-52.5-22.69h-71.58c-44.8,0-65.74-14.89-65.74-41.71s21.74-43.78,70.52-43.78h143.41l-18.55,21.08h-126.99c-27.04,0-40.56,8.26-40.56,24.3,0,19.48,18.82,21.78,52.49,21.78h71.58c43.21,0,65.48,13.52,65.48,41.26,0,29.34-21.47,44.92-70.25,44.92H73.03Z"/>
              </g>
              <g>
                <path d="m419.62,1125.55c-58.84,0-102.06-33.7-102.06-78.16s43.21-75.18,102.06-75.18h112.16l-18.82,21.08h-93.34c-34.71,0-73.42,16.97-73.42,55.24s38.97,56.16,89.07,56.16h96.51l-18.82,20.86h-93.34Z"/>
                <path d="m419.62,1125.55c-58.84,0-102.06-33.7-102.06-78.16s43.21-75.18,102.06-75.18h112.16l-18.82,21.08h-93.34c-34.71,0-73.42,16.97-73.42,55.24s38.97,56.16,89.07,56.16h96.51l-18.82,20.86h-93.34Z"/>
              </g>
              <path d="m605.35,1125.55l17.48-20.86h123.53l-81.66-106.35-99.4,127.21h-33.93l115.05-146c3.71-4.82,10.08-9.4,18.82-9.4s14.83,4.12,18.82,9.4l113.45,146h-192.18Z"/>
              <g>
                <path d="m815.98,1125.55v-153.34h28.62v132.48h147.9l-18.82,20.86h-157.7Z"/>
                <path d="m815.98,1125.55v-153.34h28.62v132.48h147.9l-18.82,20.86h-157.7Z"/>
              </g>
              <g>
                <path d="m1010.12,1125.55v-153.34h188.23l-18.82,21.08h-140.76v46.08h151.38l-16.45,18.33h-134.93v46.99h160.92l-18.82,20.86h-170.74Z"/>
                <path d="m1010.12,1125.55v-153.34h188.23l-18.82,21.08h-140.76v46.08h151.38l-16.45,18.33h-134.93v46.99h160.92l-18.82,20.86h-170.74Z"/>
              </g>
              <g>
                <path d="m1217.55,1125.55v-95.59h28.62v74.73h81.64c40.58,0,70.8-23.61,70.8-56.16s-30.5-55.24-70.8-55.24h-110.26l18.54-21.08h91.72c57.55,0,99.16,30.94,99.16,75.18s-42.16,78.16-99.16,78.16h-110.26Z"/>
                <path d="m1217.55,1125.55v-95.59h28.62v74.73h81.64c40.58,0,70.8-23.61,70.8-56.16s-30.5-55.24-70.8-55.24h-110.26l18.54-21.08h91.72c57.55,0,99.16,30.94,99.16,75.18s-42.16,78.16-99.16,78.16h-110.26Z"/>
              </g>
            </g>
          </g>
          <g>
            <g>
              <path class="cls-5" d="m148.21,1263.18c0-31.55,21.33-41.54,55.16-41.54,13.4,0,26.78.68,39.96,3.63.91,3.86.91,9.31,0,13.17-12.96-2.04-24.07-2.96-38.37-2.96-22.48,0-41.09,3.41-41.09,29.97v68.78c0,26.33,18.61,29.96,41.09,29.96,16.12,0,27.25-2.95,38.82-6.35,1.37,3.4,2.27,8.62,2.27,12.94-13.62,5.22-29.06,7.72-42.68,7.72-33.83,0-55.16-9.99-55.16-41.77v-73.55Z"/>
              <path class="cls-5" d="m383.92,1336.73c0,31.33-21.57,41.77-54.03,41.77s-54.03-10.44-54.03-41.77v-73.55c0-31.1,21.55-41.54,54.03-41.54s54.03,10.44,54.03,41.54v73.55Zm-15.67-71.73c0-26.11-17.71-29.52-38.35-29.52s-38.37,3.41-38.37,29.52v69.92c0,25.65,17.93,29.28,38.37,29.28s38.35-3.63,38.35-29.28v-69.92Z"/>
              <path class="cls-5" d="m541.07,1252.28l-44.71,83.77c-4.33.91-7.73.91-12.27,0l-44.94-84.22v123.95c-4.77.91-10.68.91-15.67,0v-150.96c4.99-.91,12.5-.91,17.49,0l49.48,94.21,49.5-94.21c4.75-.91,12.01-.91,16.78,0v150.96c-4.77.91-10.67.91-15.66,0v-123.49Z"/>
              <path class="cls-5" d="m600.87,1224.81h43.36c34.51,0,56.06,10.44,56.06,41.31v10.44c0,29.74-21.55,39.95-56.06,39.95h-27.69v59.25c-4.77.91-10.68.91-15.67,0v-150.96Zm83.77,43.35c0-25.43-18.15-29.28-40.63-29.28h-27.47v64.47h27.47c22.48,0,40.63-4.09,40.63-28.6v-6.59Z"/>
              <path class="cls-5" d="m837.51,1336.73c0,31.33-21.57,41.77-54.03,41.77s-54.03-10.44-54.03-41.77v-73.55c0-31.1,21.55-41.54,54.03-41.54s54.03,10.44,54.03,41.54v73.55Zm-15.67-71.73c0-26.11-17.71-29.52-38.35-29.52s-38.37,3.41-38.37,29.52v69.92c0,25.65,17.93,29.28,38.37,29.28s38.35-3.63,38.35-29.28v-69.92Z"/>
              <path class="cls-5" d="m957.21,1341.73c0,26.78-17.95,36.77-48.6,36.77-12.94,0-27.47-.91-40.41-3.63-.91-3.63-.91-9.76,0-13.62,14.09,2.04,26.12,2.95,40.41,2.95,18.17,0,33.14-3.18,33.14-24.29v-9.76c0-14.3-6.58-16.12-18.61-19.98l-27.69-9.31c-18.84-6.13-27.69-13.16-27.69-29.51v-13.16c0-27.01,20.65-36.55,50.85-36.55,13.16,0,24.51.68,37.67,3.86.92,3.63.92,9.31,0,12.94-13.6-2.27-23.83-3.18-37.45-3.18-19.98,0-35.64,3.63-35.64,24.06v8.63c0,12.71,6.36,15.43,18.61,19.75l28.15,9.53c18.61,6.36,27.25,11.36,27.25,30.43v14.08Z"/>
              <path class="cls-5" d="m992,1224.81c4.99-.91,10.91-.91,15.67,0v150.96c-4.77.91-10.68.91-15.67,0v-150.96Z"/>
              <path class="cls-5" d="m1079.89,1238.44h-45.62c-.92-3.86-.92-9.76,0-13.62h106.69c.91,3.86.91,9.76,0,13.62h-45.4v137.34c-4.77.91-10.68.91-15.67,0v-137.34Z"/>
              <path class="cls-5" d="m1167.8,1375.77v-150.96h82.18c.91,3.86.91,9.76,0,13.62h-66.51v53.8h64.23c.91,3.86.91,9.76,0,13.39h-64.23v56.52h66.51c.91,3.63.91,9.99,0,13.62h-82.18Z"/>
              <path class="cls-5" d="m1365.38,1341.73c0,26.78-17.95,36.77-48.6,36.77-12.94,0-27.47-.91-40.41-3.63-.91-3.63-.91-9.76,0-13.62,14.09,2.04,26.12,2.95,40.41,2.95,18.17,0,33.14-3.18,33.14-24.29v-9.76c0-14.3-6.58-16.12-18.61-19.98l-27.69-9.31c-18.84-6.13-27.69-13.16-27.69-29.51v-13.16c0-27.01,20.65-36.55,50.85-36.55,13.16,0,24.51.68,37.67,3.86.92,3.63.92,9.31,0,12.94-13.6-2.27-23.83-3.18-37.45-3.18-19.98,0-35.64,3.63-35.64,24.06v8.63c0,12.71,6.36,15.43,18.61,19.75l28.15,9.53c18.61,6.36,27.25,11.36,27.25,30.43v14.08Z"/>
            </g>
            <g>
              <path class="cls-4" d="m148.21,1263.18c0-31.55,21.33-41.54,55.16-41.54,13.4,0,26.78.68,39.96,3.63.91,3.86.91,9.31,0,13.17-12.96-2.04-24.07-2.96-38.37-2.96-22.48,0-41.09,3.41-41.09,29.97v68.78c0,26.33,18.61,29.96,41.09,29.96,16.12,0,27.25-2.95,38.82-6.35,1.37,3.4,2.27,8.62,2.27,12.94-13.62,5.22-29.06,7.72-42.68,7.72-33.83,0-55.16-9.99-55.16-41.77v-73.55Z"/>
              <path class="cls-4" d="m383.92,1336.73c0,31.33-21.57,41.77-54.03,41.77s-54.03-10.44-54.03-41.77v-73.55c0-31.1,21.55-41.54,54.03-41.54s54.03,10.44,54.03,41.54v73.55Zm-15.67-71.73c0-26.11-17.71-29.52-38.35-29.52s-38.37,3.41-38.37,29.52v69.92c0,25.65,17.93,29.28,38.37,29.28s38.35-3.63,38.35-29.28v-69.92Z"/>
              <path class="cls-4" d="m541.07,1252.28l-44.71,83.77c-4.33.91-7.73.91-12.27,0l-44.94-84.22v123.95c-4.77.91-10.68.91-15.67,0v-150.96c4.99-.91,12.5-.91,17.49,0l49.48,94.21,49.5-94.21c4.75-.91,12.01-.91,16.78,0v150.96c-4.77.91-10.67.91-15.66,0v-123.49Z"/>
              <path class="cls-4" d="m600.87,1224.81h43.36c34.51,0,56.06,10.44,56.06,41.31v10.44c0,29.74-21.55,39.95-56.06,39.95h-27.69v59.25c-4.77.91-10.68.91-15.67,0v-150.96Zm83.77,43.35c0-25.43-18.15-29.28-40.63-29.28h-27.47v64.47h27.47c22.48,0,40.63-4.09,40.63-28.6v-6.59Z"/>
              <path class="cls-4" d="m837.51,1336.73c0,31.33-21.57,41.77-54.03,41.77s-54.03-10.44-54.03-41.77v-73.55c0-31.1,21.55-41.54,54.03-41.54s54.03,10.44,54.03,41.54v73.55Zm-15.67-71.73c0-26.11-17.71-29.52-38.35-29.52s-38.37,3.41-38.37,29.52v69.92c0,25.65,17.93,29.28,38.37,29.28s38.35-3.63,38.35-29.28v-69.92Z"/>
              <path class="cls-4" d="m957.21,1341.73c0,26.78-17.95,36.77-48.6,36.77-12.94,0-27.47-.91-40.41-3.63-.91-3.63-.91-9.76,0-13.62,14.09,2.04,26.12,2.95,40.41,2.95,18.17,0,33.14-3.18,33.14-24.29v-9.76c0-14.3-6.58-16.12-18.61-19.98l-27.69-9.31c-18.84-6.13-27.69-13.16-27.69-29.51v-13.16c0-27.01,20.65-36.55,50.85-36.55,13.16,0,24.51.68,37.67,3.86.92,3.63.92,9.31,0,12.94-13.6-2.27-23.83-3.18-37.45-3.18-19.98,0-35.64,3.63-35.64,24.06v8.63c0,12.71,6.36,15.43,18.61,19.75l28.15,9.53c18.61,6.36,27.25,11.36,27.25,30.43v14.08Z"/>
              <path class="cls-4" d="m992,1224.81c4.99-.91,10.91-.91,15.67,0v150.96c-4.77.91-10.68.91-15.67,0v-150.96Z"/>
              <path class="cls-4" d="m1079.89,1238.44h-45.62c-.92-3.86-.92-9.76,0-13.62h106.69c.91,3.86.91,9.76,0,13.62h-45.4v137.34c-4.77.91-10.68.91-15.67,0v-137.34Z"/>
              <path class="cls-4" d="m1167.8,1375.77v-150.96h82.18c.91,3.86.91,9.76,0,13.62h-66.51v53.8h64.23c.91,3.86.91,9.76,0,13.39h-64.23v56.52h66.51c.91,3.63.91,9.99,0,13.62h-82.18Z"/>
              <path class="cls-4" d="m1365.38,1341.73c0,26.78-17.95,36.77-48.6,36.77-12.94,0-27.47-.91-40.41-3.63-.91-3.63-.91-9.76,0-13.62,14.09,2.04,26.12,2.95,40.41,2.95,18.17,0,33.14-3.18,33.14-24.29v-9.76c0-14.3-6.58-16.12-18.61-19.98l-27.69-9.31c-18.84-6.13-27.69-13.16-27.69-29.51v-13.16c0-27.01,20.65-36.55,50.85-36.55,13.16,0,24.51.68,37.67,3.86.92,3.63.92,9.31,0,12.94-13.6-2.27-23.83-3.18-37.45-3.18-19.98,0-35.64,3.63-35.64,24.06v8.63c0,12.71,6.36,15.43,18.61,19.75l28.15,9.53c18.61,6.36,27.25,11.36,27.25,30.43v14.08Z"/>
            </g>
            <g class="cls-9">
              <path d="m148.21,1263.18c0-31.55,21.33-41.54,55.16-41.54,13.4,0,26.78.68,39.96,3.63.91,3.86.91,9.31,0,13.17-12.96-2.04-24.07-2.96-38.37-2.96-22.48,0-41.09,3.41-41.09,29.97v68.78c0,26.33,18.61,29.96,41.09,29.96,16.12,0,27.25-2.95,38.82-6.35,1.37,3.4,2.27,8.62,2.27,12.94-13.62,5.22-29.06,7.72-42.68,7.72-33.83,0-55.16-9.99-55.16-41.77v-73.55Z"/>
              <path d="m383.92,1336.73c0,31.33-21.57,41.77-54.03,41.77s-54.03-10.44-54.03-41.77v-73.55c0-31.1,21.55-41.54,54.03-41.54s54.03,10.44,54.03,41.54v73.55Zm-15.67-71.73c0-26.11-17.71-29.52-38.35-29.52s-38.37,3.41-38.37,29.52v69.92c0,25.65,17.93,29.28,38.37,29.28s38.35-3.63,38.35-29.28v-69.92Z"/>
              <path d="m541.07,1252.28l-44.71,83.77c-4.33.91-7.73.91-12.27,0l-44.94-84.22v123.95c-4.77.91-10.68.91-15.67,0v-150.96c4.99-.91,12.5-.91,17.49,0l49.48,94.21,49.5-94.21c4.75-.91,12.01-.91,16.78,0v150.96c-4.77.91-10.67.91-15.66,0v-123.49Z"/>
              <path d="m600.87,1224.81h43.36c34.51,0,56.06,10.44,56.06,41.31v10.44c0,29.74-21.55,39.95-56.06,39.95h-27.69v59.25c-4.77.91-10.68.91-15.67,0v-150.96Zm83.77,43.35c0-25.43-18.15-29.28-40.63-29.28h-27.47v64.47h27.47c22.48,0,40.63-4.09,40.63-28.6v-6.59Z"/>
              <path d="m837.51,1336.73c0,31.33-21.57,41.77-54.03,41.77s-54.03-10.44-54.03-41.77v-73.55c0-31.1,21.55-41.54,54.03-41.54s54.03,10.44,54.03,41.54v73.55Zm-15.67-71.73c0-26.11-17.71-29.52-38.35-29.52s-38.37,3.41-38.37,29.52v69.92c0,25.65,17.93,29.28,38.37,29.28s38.35-3.63,38.35-29.28v-69.92Z"/>
              <path d="m957.21,1341.73c0,26.78-17.95,36.77-48.6,36.77-12.94,0-27.47-.91-40.41-3.63-.91-3.63-.91-9.76,0-13.62,14.09,2.04,26.12,2.95,40.41,2.95,18.17,0,33.14-3.18,33.14-24.29v-9.76c0-14.3-6.58-16.12-18.61-19.98l-27.69-9.31c-18.84-6.13-27.69-13.16-27.69-29.51v-13.16c0-27.01,20.65-36.55,50.85-36.55,13.16,0,24.51.68,37.67,3.86.92,3.63.92,9.31,0,12.94-13.6-2.27-23.83-3.18-37.45-3.18-19.98,0-35.64,3.63-35.64,24.06v8.63c0,12.71,6.36,15.43,18.61,19.75l28.15,9.53c18.61,6.36,27.25,11.36,27.25,30.43v14.08Z"/>
              <path d="m992,1224.81c4.99-.91,10.91-.91,15.67,0v150.96c-4.77.91-10.68.91-15.67,0v-150.96Z"/>
              <path d="m1079.89,1238.44h-45.62c-.92-3.86-.92-9.76,0-13.62h106.69c.91,3.86.91,9.76,0,13.62h-45.4v137.34c-4.77.91-10.68.91-15.67,0v-137.34Z"/>
              <path d="m1167.8,1375.77v-150.96h82.18c.91,3.86.91,9.76,0,13.62h-66.51v53.8h64.23c.91,3.86.91,9.76,0,13.39h-64.23v56.52h66.51c.91,3.63.91,9.99,0,13.62h-82.18Z"/>
              <path d="m1365.38,1341.73c0,26.78-17.95,36.77-48.6,36.77-12.94,0-27.47-.91-40.41-3.63-.91-3.63-.91-9.76,0-13.62,14.09,2.04,26.12,2.95,40.41,2.95,18.17,0,33.14-3.18,33.14-24.29v-9.76c0-14.3-6.58-16.12-18.61-19.98l-27.69-9.31c-18.84-6.13-27.69-13.16-27.69-29.51v-13.16c0-27.01,20.65-36.55,50.85-36.55,13.16,0,24.51.68,37.67,3.86.92,3.63.92,9.31,0,12.94-13.6-2.27-23.83-3.18-37.45-3.18-19.98,0-35.64,3.63-35.64,24.06v8.63c0,12.71,6.36,15.43,18.61,19.75l28.15,9.53c18.61,6.36,27.25,11.36,27.25,30.43v14.08Z"/>
            </g>
          </g>
        </g>
      </g>
    </g>
  </g>
</svg>